<mxfile host="app.diagrams.net" modified="2023-03-30T13:02:26.914Z" agent="Mozilla/5.0 (Windows NT 10.0; Win64; x64) AppleWebKit/537.36 (KHTML, like Gecko) Chrome/109.0.0.0 Safari/537.36" etag="zT7V1AJVTnrNnFZCN0Ej" version="21.1.2" type="github" pages="9">
  <diagram id="ZFg_mrYJk2t0nbDr_XJb" name="POOL_CREATE">
    <mxGraphModel dx="954" dy="2256" grid="1" gridSize="10" guides="1" tooltips="1" connect="1" arrows="1" fold="1" page="1" pageScale="1" pageWidth="1200" pageHeight="1600" math="0" shadow="0">
      <root>
        <mxCell id="0" />
        <mxCell id="1" parent="0" />
        <mxCell id="geR6LaY6GynGzY4-lqUV-3" value="daos_server" style="shape=umlLifeline;perimeter=lifelinePerimeter;whiteSpace=wrap;html=1;container=1;dropTarget=0;collapsible=0;recursiveResize=0;outlineConnect=0;portConstraint=eastwest;newEdgeStyle={&quot;edgeStyle&quot;:&quot;elbowEdgeStyle&quot;,&quot;elbow&quot;:&quot;vertical&quot;,&quot;curved&quot;:0,&quot;rounded&quot;:0};participant=umlEntity;" parent="1" vertex="1">
          <mxGeometry x="150" y="80" width="40" height="1010" as="geometry" />
        </mxCell>
        <mxCell id="E8yKg5pymLhxsKJmagK--31" value="" style="html=1;points=[];perimeter=orthogonalPerimeter;outlineConnect=0;targetShapes=umlLifeline;portConstraint=eastwest;newEdgeStyle={&quot;edgeStyle&quot;:&quot;elbowEdgeStyle&quot;,&quot;elbow&quot;:&quot;vertical&quot;,&quot;curved&quot;:0,&quot;rounded&quot;:0};" parent="geR6LaY6GynGzY4-lqUV-3" vertex="1">
          <mxGeometry x="15" y="60" width="10" height="145" as="geometry" />
        </mxCell>
        <mxCell id="E8yKg5pymLhxsKJmagK--32" value="" style="html=1;points=[];perimeter=orthogonalPerimeter;outlineConnect=0;targetShapes=umlLifeline;portConstraint=eastwest;newEdgeStyle={&quot;edgeStyle&quot;:&quot;elbowEdgeStyle&quot;,&quot;elbow&quot;:&quot;vertical&quot;,&quot;curved&quot;:0,&quot;rounded&quot;:0};" parent="geR6LaY6GynGzY4-lqUV-3" vertex="1">
          <mxGeometry x="20" y="80" width="10" height="40" as="geometry" />
        </mxCell>
        <mxCell id="E8yKg5pymLhxsKJmagK--33" value="2. 将容量按照rank个数均分" style="html=1;align=left;spacingLeft=2;endArrow=block;rounded=0;edgeStyle=orthogonalEdgeStyle;curved=0;rounded=0;" parent="geR6LaY6GynGzY4-lqUV-3" target="E8yKg5pymLhxsKJmagK--32" edge="1">
          <mxGeometry x="-0.1727" y="-10" relative="1" as="geometry">
            <mxPoint x="25" y="105" as="sourcePoint" />
            <Array as="points">
              <mxPoint x="25" y="70" />
              <mxPoint x="55" y="70" />
              <mxPoint x="55" y="100" />
            </Array>
            <mxPoint as="offset" />
          </mxGeometry>
        </mxCell>
        <mxCell id="geR6LaY6GynGzY4-lqUV-4" value="rank" style="shape=umlLifeline;perimeter=lifelinePerimeter;whiteSpace=wrap;html=1;container=1;dropTarget=0;collapsible=0;recursiveResize=0;outlineConnect=0;portConstraint=eastwest;newEdgeStyle={&quot;edgeStyle&quot;:&quot;elbowEdgeStyle&quot;,&quot;elbow&quot;:&quot;vertical&quot;,&quot;curved&quot;:0,&quot;rounded&quot;:0};participant=umlEntity;" parent="1" vertex="1">
          <mxGeometry x="460" y="80" width="40" height="1010" as="geometry" />
        </mxCell>
        <mxCell id="geR6LaY6GynGzY4-lqUV-5" value="" style="html=1;points=[];perimeter=orthogonalPerimeter;outlineConnect=0;targetShapes=umlLifeline;portConstraint=eastwest;newEdgeStyle={&quot;edgeStyle&quot;:&quot;elbowEdgeStyle&quot;,&quot;elbow&quot;:&quot;vertical&quot;,&quot;curved&quot;:0,&quot;rounded&quot;:0};" parent="geR6LaY6GynGzY4-lqUV-4" vertex="1">
          <mxGeometry x="15" y="130" width="10" height="540" as="geometry" />
        </mxCell>
        <mxCell id="E8yKg5pymLhxsKJmagK--41" value="" style="html=1;points=[];perimeter=orthogonalPerimeter;outlineConnect=0;targetShapes=umlLifeline;portConstraint=eastwest;newEdgeStyle={&quot;edgeStyle&quot;:&quot;elbowEdgeStyle&quot;,&quot;elbow&quot;:&quot;vertical&quot;,&quot;curved&quot;:0,&quot;rounded&quot;:0};" parent="geR6LaY6GynGzY4-lqUV-4" vertex="1">
          <mxGeometry x="20" y="460" width="10" height="40" as="geometry" />
        </mxCell>
        <mxCell id="E8yKg5pymLhxsKJmagK--42" value="11. 选择rank创建pool svc" style="html=1;align=left;spacingLeft=2;endArrow=block;rounded=0;edgeStyle=orthogonalEdgeStyle;curved=0;rounded=0;" parent="geR6LaY6GynGzY4-lqUV-4" target="E8yKg5pymLhxsKJmagK--41" edge="1">
          <mxGeometry x="0.0053" relative="1" as="geometry">
            <mxPoint x="25" y="440" as="sourcePoint" />
            <Array as="points">
              <mxPoint x="55" y="470" />
            </Array>
            <mxPoint as="offset" />
          </mxGeometry>
        </mxCell>
        <mxCell id="geR6LaY6GynGzY4-lqUV-6" value="3. DRPC_METHOD_MGMT_POOL_CREATE&lt;br&gt;uuid, ranks,nvme_size, scm_size" style="html=1;verticalAlign=bottom;endArrow=block;edgeStyle=elbowEdgeStyle;elbow=vertical;curved=0;rounded=0;" parent="1" source="E8yKg5pymLhxsKJmagK--31" target="geR6LaY6GynGzY4-lqUV-5" edge="1">
          <mxGeometry x="-0.0023" relative="1" as="geometry">
            <mxPoint x="320" y="210" as="sourcePoint" />
            <Array as="points">
              <mxPoint x="390" y="210" />
            </Array>
            <mxPoint as="offset" />
          </mxGeometry>
        </mxCell>
        <mxCell id="geR6LaY6GynGzY4-lqUV-7" value="15. scm_size, nvme_size, pool_svc列表" style="html=1;verticalAlign=bottom;endArrow=open;dashed=1;endSize=8;edgeStyle=elbowEdgeStyle;elbow=vertical;curved=0;rounded=0;" parent="1" source="geR6LaY6GynGzY4-lqUV-5" target="geR6LaY6GynGzY4-lqUV-3" edge="1">
          <mxGeometry x="-0.0046" relative="1" as="geometry">
            <mxPoint x="405" y="285" as="targetPoint" />
            <Array as="points">
              <mxPoint x="340" y="740" />
              <mxPoint x="360" y="830" />
              <mxPoint x="350" y="680" />
              <mxPoint x="370" y="600" />
              <mxPoint x="420" y="480" />
            </Array>
            <mxPoint as="offset" />
          </mxGeometry>
        </mxCell>
        <mxCell id="geR6LaY6GynGzY4-lqUV-9" value="管理面发送的scm、nvme容量要求&lt;br&gt;req-&amp;gt;tierbytes[DAOS_MEDIA_SCM]&lt;br&gt;req-&amp;gt;tierbytes[DAOS_MEDIA_NVME]" style="text;html=1;align=left;verticalAlign=middle;resizable=0;points=[];autosize=1;strokeColor=none;fillColor=none;" parent="1" vertex="1">
          <mxGeometry x="215" y="60" width="220" height="60" as="geometry" />
        </mxCell>
        <mxCell id="DW9-Tm3P0Ngqlq02i1sD-1" value="others rank" style="shape=umlLifeline;perimeter=lifelinePerimeter;whiteSpace=wrap;html=1;container=1;dropTarget=0;collapsible=0;recursiveResize=0;outlineConnect=0;portConstraint=eastwest;newEdgeStyle={&quot;edgeStyle&quot;:&quot;elbowEdgeStyle&quot;,&quot;elbow&quot;:&quot;vertical&quot;,&quot;curved&quot;:0,&quot;rounded&quot;:0};participant=umlEntity;" parent="1" vertex="1">
          <mxGeometry x="660" y="80" width="40" height="1010" as="geometry" />
        </mxCell>
        <mxCell id="E8yKg5pymLhxsKJmagK--1" value="" style="html=1;points=[];perimeter=orthogonalPerimeter;outlineConnect=0;targetShapes=umlLifeline;portConstraint=eastwest;newEdgeStyle={&quot;edgeStyle&quot;:&quot;elbowEdgeStyle&quot;,&quot;elbow&quot;:&quot;vertical&quot;,&quot;curved&quot;:0,&quot;rounded&quot;:0};" parent="DW9-Tm3P0Ngqlq02i1sD-1" vertex="1">
          <mxGeometry x="15" y="150" width="10" height="200" as="geometry" />
        </mxCell>
        <mxCell id="E8yKg5pymLhxsKJmagK--34" value="" style="html=1;points=[];perimeter=orthogonalPerimeter;outlineConnect=0;targetShapes=umlLifeline;portConstraint=eastwest;newEdgeStyle={&quot;edgeStyle&quot;:&quot;elbowEdgeStyle&quot;,&quot;elbow&quot;:&quot;vertical&quot;,&quot;curved&quot;:0,&quot;rounded&quot;:0};" parent="DW9-Tm3P0Ngqlq02i1sD-1" vertex="1">
          <mxGeometry x="20" y="200" width="10" height="40" as="geometry" />
        </mxCell>
        <mxCell id="E8yKg5pymLhxsKJmagK--35" value="5. 将容量请求均分到所属target上" style="html=1;align=left;spacingLeft=2;endArrow=block;rounded=0;edgeStyle=orthogonalEdgeStyle;curved=0;rounded=0;" parent="DW9-Tm3P0Ngqlq02i1sD-1" target="E8yKg5pymLhxsKJmagK--34" edge="1">
          <mxGeometry x="-0.002" relative="1" as="geometry">
            <mxPoint x="25" y="170" as="sourcePoint" />
            <Array as="points">
              <mxPoint x="25" y="180" />
              <mxPoint x="55" y="180" />
              <mxPoint x="55" y="220" />
            </Array>
            <mxPoint as="offset" />
          </mxGeometry>
        </mxCell>
        <mxCell id="E8yKg5pymLhxsKJmagK--43" value="" style="html=1;points=[];perimeter=orthogonalPerimeter;outlineConnect=0;targetShapes=umlLifeline;portConstraint=eastwest;newEdgeStyle={&quot;edgeStyle&quot;:&quot;elbowEdgeStyle&quot;,&quot;elbow&quot;:&quot;vertical&quot;,&quot;curved&quot;:0,&quot;rounded&quot;:0};" parent="DW9-Tm3P0Ngqlq02i1sD-1" vertex="1">
          <mxGeometry x="15" y="520" width="10" height="80" as="geometry" />
        </mxCell>
        <mxCell id="E8yKg5pymLhxsKJmagK--46" value="" style="html=1;points=[];perimeter=orthogonalPerimeter;outlineConnect=0;targetShapes=umlLifeline;portConstraint=eastwest;newEdgeStyle={&quot;edgeStyle&quot;:&quot;elbowEdgeStyle&quot;,&quot;elbow&quot;:&quot;vertical&quot;,&quot;curved&quot;:0,&quot;rounded&quot;:0};" parent="DW9-Tm3P0Ngqlq02i1sD-1" vertex="1">
          <mxGeometry x="20" y="550" width="10" height="40" as="geometry" />
        </mxCell>
        <mxCell id="E8yKg5pymLhxsKJmagK--47" value="13. 创建RDB，启动raft" style="html=1;align=left;spacingLeft=2;endArrow=block;rounded=0;edgeStyle=orthogonalEdgeStyle;curved=0;rounded=0;" parent="DW9-Tm3P0Ngqlq02i1sD-1" source="E8yKg5pymLhxsKJmagK--43" target="E8yKg5pymLhxsKJmagK--46" edge="1">
          <mxGeometry x="0.151" y="-1" relative="1" as="geometry">
            <mxPoint x="31" y="530" as="sourcePoint" />
            <Array as="points">
              <mxPoint x="61" y="530" />
              <mxPoint x="61" y="560" />
            </Array>
            <mxPoint as="offset" />
          </mxGeometry>
        </mxCell>
        <mxCell id="E8yKg5pymLhxsKJmagK--2" value="4. CaRT/TGT_CREATE&lt;br&gt;uuid, scm_size, nvme_size" style="html=1;verticalAlign=bottom;endArrow=block;edgeStyle=elbowEdgeStyle;elbow=vertical;curved=0;rounded=0;" parent="1" source="geR6LaY6GynGzY4-lqUV-5" target="E8yKg5pymLhxsKJmagK--1" edge="1">
          <mxGeometry x="0.0018" relative="1" as="geometry">
            <mxPoint x="535" y="230" as="sourcePoint" />
            <Array as="points">
              <mxPoint x="540" y="250" />
            </Array>
            <mxPoint as="offset" />
          </mxGeometry>
        </mxCell>
        <mxCell id="E8yKg5pymLhxsKJmagK--3" value="10. rank, result" style="html=1;verticalAlign=bottom;endArrow=open;dashed=1;endSize=8;edgeStyle=elbowEdgeStyle;elbow=vertical;curved=0;rounded=0;" parent="1" source="E8yKg5pymLhxsKJmagK--1" target="geR6LaY6GynGzY4-lqUV-5" edge="1">
          <mxGeometry x="0.0018" relative="1" as="geometry">
            <mxPoint x="535" y="305" as="targetPoint" />
            <Array as="points">
              <mxPoint x="560" y="420" />
            </Array>
            <mxPoint as="offset" />
          </mxGeometry>
        </mxCell>
        <mxCell id="E8yKg5pymLhxsKJmagK--4" value="" style="whiteSpace=wrap;html=1;" parent="1" vertex="1">
          <mxGeometry x="715" y="-360" width="120" height="200" as="geometry" />
        </mxCell>
        <mxCell id="E8yKg5pymLhxsKJmagK--10" value="DRPC/POOL_CREAE" style="edgeStyle=orthogonalEdgeStyle;rounded=0;orthogonalLoop=1;jettySize=auto;html=1;" parent="1" source="E8yKg5pymLhxsKJmagK--5" target="E8yKg5pymLhxsKJmagK--6" edge="1">
          <mxGeometry relative="1" as="geometry" />
        </mxCell>
        <mxCell id="E8yKg5pymLhxsKJmagK--5" value="daos_server" style="whiteSpace=wrap;html=1;" parent="1" vertex="1">
          <mxGeometry x="735" y="-320" width="80" height="40" as="geometry" />
        </mxCell>
        <mxCell id="E8yKg5pymLhxsKJmagK--6" value="daos_engine" style="whiteSpace=wrap;html=1;" parent="1" vertex="1">
          <mxGeometry x="735" y="-220" width="80" height="40" as="geometry" />
        </mxCell>
        <mxCell id="E8yKg5pymLhxsKJmagK--7" value="server leader" style="text;html=1;align=center;verticalAlign=middle;resizable=0;points=[];autosize=1;strokeColor=none;fillColor=none;" parent="1" vertex="1">
          <mxGeometry x="735" y="-390" width="90" height="30" as="geometry" />
        </mxCell>
        <mxCell id="E8yKg5pymLhxsKJmagK--8" value="" style="endArrow=classic;html=1;rounded=0;edgeStyle=orthogonalEdgeStyle;curved=1;" parent="1" target="E8yKg5pymLhxsKJmagK--5" edge="1">
          <mxGeometry width="50" height="50" relative="1" as="geometry">
            <mxPoint x="495" y="-380" as="sourcePoint" />
            <mxPoint x="545" y="-430" as="targetPoint" />
          </mxGeometry>
        </mxCell>
        <mxCell id="E8yKg5pymLhxsKJmagK--9" value="dmg pool create --scm-size=6G --nvme_size=100G mypool" style="text;html=1;align=center;verticalAlign=middle;resizable=0;points=[];autosize=1;strokeColor=none;fillColor=none;" parent="1" vertex="1">
          <mxGeometry x="440" y="-400" width="340" height="30" as="geometry" />
        </mxCell>
        <mxCell id="E8yKg5pymLhxsKJmagK--12" value="请求发送到server leadr, 会做以下几步&lt;br&gt;1. 选择创建pool 的ranks列表&lt;br&gt;2. 根据rank的个数将scm和nvme容量请求拆分&lt;br&gt;3. 通过drpc将pool 创建请求发送到所属的ranks上" style="text;html=1;align=left;verticalAlign=middle;resizable=0;points=[];autosize=1;strokeColor=none;fillColor=none;" parent="1" vertex="1">
          <mxGeometry x="435" y="-350" width="280" height="70" as="geometry" />
        </mxCell>
        <mxCell id="E8yKg5pymLhxsKJmagK--13" value="" style="whiteSpace=wrap;html=1;" parent="1" vertex="1">
          <mxGeometry x="995" y="-360" width="120" height="200" as="geometry" />
        </mxCell>
        <mxCell id="E8yKg5pymLhxsKJmagK--14" value="daos_server" style="whiteSpace=wrap;html=1;" parent="1" vertex="1">
          <mxGeometry x="1015" y="-320" width="80" height="40" as="geometry" />
        </mxCell>
        <mxCell id="E8yKg5pymLhxsKJmagK--15" value="daos_engine" style="whiteSpace=wrap;html=1;" parent="1" vertex="1">
          <mxGeometry x="1015" y="-220" width="80" height="40" as="geometry" />
        </mxCell>
        <mxCell id="E8yKg5pymLhxsKJmagK--16" value="" style="whiteSpace=wrap;html=1;" parent="1" vertex="1">
          <mxGeometry x="1245" y="-360" width="120" height="200" as="geometry" />
        </mxCell>
        <mxCell id="E8yKg5pymLhxsKJmagK--17" value="daos_server" style="whiteSpace=wrap;html=1;" parent="1" vertex="1">
          <mxGeometry x="1265" y="-320" width="80" height="40" as="geometry" />
        </mxCell>
        <mxCell id="E8yKg5pymLhxsKJmagK--18" value="daos_engine" style="whiteSpace=wrap;html=1;" parent="1" vertex="1">
          <mxGeometry x="1265" y="-220" width="80" height="40" as="geometry" />
        </mxCell>
        <mxCell id="E8yKg5pymLhxsKJmagK--20" value="TGT_CREATE" style="edgeStyle=orthogonalEdgeStyle;rounded=0;orthogonalLoop=1;jettySize=auto;html=1;entryX=0.5;entryY=0;entryDx=0;entryDy=0;curved=1;fillColor=#fff2cc;strokeColor=#d6b656;" parent="1" source="E8yKg5pymLhxsKJmagK--6" target="E8yKg5pymLhxsKJmagK--15" edge="1">
          <mxGeometry relative="1" as="geometry">
            <Array as="points">
              <mxPoint x="775" y="-260" />
              <mxPoint x="1055" y="-260" />
            </Array>
          </mxGeometry>
        </mxCell>
        <mxCell id="E8yKg5pymLhxsKJmagK--21" value="TGT_CREATE" style="edgeStyle=orthogonalEdgeStyle;rounded=0;orthogonalLoop=1;jettySize=auto;html=1;curved=1;fillColor=#fff2cc;strokeColor=#d6b656;" parent="1" target="E8yKg5pymLhxsKJmagK--18" edge="1">
          <mxGeometry relative="1" as="geometry">
            <mxPoint x="775" y="-220" as="sourcePoint" />
            <Array as="points">
              <mxPoint x="775" y="-280" />
              <mxPoint x="1305" y="-280" />
            </Array>
          </mxGeometry>
        </mxCell>
        <mxCell id="E8yKg5pymLhxsKJmagK--22" value="POOL_CREATE" style="edgeStyle=orthogonalEdgeStyle;rounded=0;orthogonalLoop=1;jettySize=auto;html=1;curved=1;dashed=1;fillColor=#dae8fc;strokeColor=#6c8ebf;" parent="1" source="E8yKg5pymLhxsKJmagK--6" target="E8yKg5pymLhxsKJmagK--18" edge="1">
          <mxGeometry relative="1" as="geometry">
            <Array as="points">
              <mxPoint x="775" y="-100" />
              <mxPoint x="1305" y="-100" />
            </Array>
          </mxGeometry>
        </mxCell>
        <mxCell id="E8yKg5pymLhxsKJmagK--24" value="target" style="shape=umlLifeline;perimeter=lifelinePerimeter;whiteSpace=wrap;html=1;container=1;dropTarget=0;collapsible=0;recursiveResize=0;outlineConnect=0;portConstraint=eastwest;newEdgeStyle={&quot;edgeStyle&quot;:&quot;elbowEdgeStyle&quot;,&quot;elbow&quot;:&quot;vertical&quot;,&quot;curved&quot;:0,&quot;rounded&quot;:0};participant=umlEntity;" parent="1" vertex="1">
          <mxGeometry x="805" y="80" width="40" height="1010" as="geometry" />
        </mxCell>
        <mxCell id="E8yKg5pymLhxsKJmagK--26" value="" style="html=1;points=[];perimeter=orthogonalPerimeter;outlineConnect=0;targetShapes=umlLifeline;portConstraint=eastwest;newEdgeStyle={&quot;edgeStyle&quot;:&quot;elbowEdgeStyle&quot;,&quot;elbow&quot;:&quot;vertical&quot;,&quot;curved&quot;:0,&quot;rounded&quot;:0};" parent="E8yKg5pymLhxsKJmagK--24" vertex="1">
          <mxGeometry x="15" y="250" width="10" height="80" as="geometry" />
        </mxCell>
        <mxCell id="E8yKg5pymLhxsKJmagK--36" value="" style="html=1;points=[];perimeter=orthogonalPerimeter;outlineConnect=0;targetShapes=umlLifeline;portConstraint=eastwest;newEdgeStyle={&quot;edgeStyle&quot;:&quot;elbowEdgeStyle&quot;,&quot;elbow&quot;:&quot;vertical&quot;,&quot;curved&quot;:0,&quot;rounded&quot;:0};" parent="E8yKg5pymLhxsKJmagK--24" vertex="1">
          <mxGeometry x="20" y="280" width="10" height="40" as="geometry" />
        </mxCell>
        <mxCell id="E8yKg5pymLhxsKJmagK--37" value="7. 创建vpool" style="html=1;align=left;spacingLeft=2;endArrow=block;rounded=0;edgeStyle=orthogonalEdgeStyle;curved=0;rounded=0;" parent="E8yKg5pymLhxsKJmagK--24" target="E8yKg5pymLhxsKJmagK--36" edge="1">
          <mxGeometry x="0.0061" relative="1" as="geometry">
            <mxPoint x="25" y="260" as="sourcePoint" />
            <Array as="points">
              <mxPoint x="55" y="290" />
            </Array>
            <mxPoint as="offset" />
          </mxGeometry>
        </mxCell>
        <mxCell id="E8yKg5pymLhxsKJmagK--27" value="6. 广播自己的target上" style="html=1;verticalAlign=bottom;endArrow=block;edgeStyle=elbowEdgeStyle;elbow=vertical;curved=0;rounded=0;" parent="1" source="E8yKg5pymLhxsKJmagK--1" target="E8yKg5pymLhxsKJmagK--26" edge="1">
          <mxGeometry x="-0.0089" relative="1" as="geometry">
            <mxPoint x="726" y="245" as="sourcePoint" />
            <Array as="points">
              <mxPoint x="720" y="330" />
              <mxPoint x="730" y="250" />
            </Array>
            <mxPoint as="offset" />
          </mxGeometry>
        </mxCell>
        <mxCell id="E8yKg5pymLhxsKJmagK--28" value="8. 等待所有成功之后返回" style="html=1;verticalAlign=bottom;endArrow=open;dashed=1;endSize=8;edgeStyle=elbowEdgeStyle;elbow=vertical;curved=0;rounded=0;" parent="1" source="E8yKg5pymLhxsKJmagK--26" target="E8yKg5pymLhxsKJmagK--1" edge="1">
          <mxGeometry x="0.0013" relative="1" as="geometry">
            <mxPoint x="726" y="320" as="targetPoint" />
            <Array as="points">
              <mxPoint x="730" y="400" />
              <mxPoint x="741" y="320" />
            </Array>
            <mxPoint as="offset" />
          </mxGeometry>
        </mxCell>
        <mxCell id="E8yKg5pymLhxsKJmagK--29" value="dmg" style="shape=umlLifeline;perimeter=lifelinePerimeter;whiteSpace=wrap;html=1;container=1;dropTarget=0;collapsible=0;recursiveResize=0;outlineConnect=0;portConstraint=eastwest;newEdgeStyle={&quot;edgeStyle&quot;:&quot;elbowEdgeStyle&quot;,&quot;elbow&quot;:&quot;vertical&quot;,&quot;curved&quot;:0,&quot;rounded&quot;:0};participant=umlEntity;" parent="1" vertex="1">
          <mxGeometry x="20" y="80" width="40" height="1010" as="geometry" />
        </mxCell>
        <mxCell id="E8yKg5pymLhxsKJmagK--30" value="1. dmg pool create" style="html=1;verticalAlign=bottom;endArrow=block;edgeStyle=elbowEdgeStyle;elbow=vertical;curved=0;rounded=0;" parent="1" target="E8yKg5pymLhxsKJmagK--31" edge="1">
          <mxGeometry width="80" relative="1" as="geometry">
            <mxPoint x="40" y="170" as="sourcePoint" />
            <mxPoint x="160" y="170" as="targetPoint" />
            <Array as="points">
              <mxPoint x="103" y="140" />
            </Array>
          </mxGeometry>
        </mxCell>
        <mxCell id="E8yKg5pymLhxsKJmagK--38" value="创建vpool" style="shape=umlFrame;whiteSpace=wrap;html=1;pointerEvents=0;width=60;height=22;" parent="1" vertex="1">
          <mxGeometry x="410" y="218" width="526" height="222" as="geometry" />
        </mxCell>
        <mxCell id="E8yKg5pymLhxsKJmagK--44" value="12. POOL_CREATE&lt;br&gt;uuid" style="html=1;verticalAlign=bottom;endArrow=block;edgeStyle=elbowEdgeStyle;elbow=vertical;curved=0;rounded=0;" parent="1" source="geR6LaY6GynGzY4-lqUV-5" target="E8yKg5pymLhxsKJmagK--43" edge="1">
          <mxGeometry x="0.0018" relative="1" as="geometry">
            <mxPoint x="490" y="610" as="sourcePoint" />
            <Array as="points">
              <mxPoint x="590" y="610" />
            </Array>
            <mxPoint as="offset" />
          </mxGeometry>
        </mxCell>
        <mxCell id="E8yKg5pymLhxsKJmagK--45" value="14. pool_map_version" style="html=1;verticalAlign=bottom;endArrow=open;dashed=1;endSize=8;edgeStyle=elbowEdgeStyle;elbow=vertical;curved=0;rounded=0;" parent="1" source="E8yKg5pymLhxsKJmagK--43" target="geR6LaY6GynGzY4-lqUV-4" edge="1">
          <mxGeometry x="0.0034" relative="1" as="geometry">
            <mxPoint x="605" y="675" as="targetPoint" />
            <Array as="points">
              <mxPoint x="588" y="670" />
            </Array>
            <mxPoint as="offset" />
          </mxGeometry>
        </mxCell>
        <mxCell id="E8yKg5pymLhxsKJmagK--48" value="创建pool_svc" style="shape=umlFrame;whiteSpace=wrap;html=1;pointerEvents=0;width=90;height=26;" parent="1" vertex="1">
          <mxGeometry x="410" y="474" width="526" height="222" as="geometry" />
        </mxCell>
        <mxCell id="E8yKg5pymLhxsKJmagK--49" value="" style="whiteSpace=wrap;html=1;" parent="1" vertex="1">
          <mxGeometry x="1435" y="-360" width="120" height="200" as="geometry" />
        </mxCell>
        <mxCell id="E8yKg5pymLhxsKJmagK--50" value="daos_server" style="whiteSpace=wrap;html=1;" parent="1" vertex="1">
          <mxGeometry x="1455" y="-320" width="80" height="40" as="geometry" />
        </mxCell>
        <mxCell id="E8yKg5pymLhxsKJmagK--51" value="daos_engine" style="whiteSpace=wrap;html=1;" parent="1" vertex="1">
          <mxGeometry x="1455" y="-220" width="80" height="40" as="geometry" />
        </mxCell>
        <mxCell id="E8yKg5pymLhxsKJmagK--52" value="POOL_CREATE" style="edgeStyle=orthogonalEdgeStyle;rounded=0;orthogonalLoop=1;jettySize=auto;html=1;curved=1;dashed=1;fillColor=#dae8fc;strokeColor=#6c8ebf;" parent="1" source="E8yKg5pymLhxsKJmagK--6" target="E8yKg5pymLhxsKJmagK--51" edge="1">
          <mxGeometry relative="1" as="geometry">
            <Array as="points">
              <mxPoint x="775" y="-60" />
              <mxPoint x="1495" y="-60" />
            </Array>
          </mxGeometry>
        </mxCell>
        <mxCell id="E8yKg5pymLhxsKJmagK--53" style="edgeStyle=orthogonalEdgeStyle;rounded=0;orthogonalLoop=1;jettySize=auto;html=1;curved=1;fillColor=#fff2cc;strokeColor=#d6b656;" parent="1" source="E8yKg5pymLhxsKJmagK--6" target="E8yKg5pymLhxsKJmagK--51" edge="1">
          <mxGeometry relative="1" as="geometry">
            <Array as="points">
              <mxPoint x="775" y="-300" />
              <mxPoint x="1495" y="-300" />
            </Array>
          </mxGeometry>
        </mxCell>
        <mxCell id="E8yKg5pymLhxsKJmagK--56" value="TGT_CREATE" style="edgeLabel;html=1;align=center;verticalAlign=middle;resizable=0;points=[];" parent="E8yKg5pymLhxsKJmagK--53" vertex="1" connectable="0">
          <mxGeometry x="0.1468" relative="1" as="geometry">
            <mxPoint as="offset" />
          </mxGeometry>
        </mxCell>
        <mxCell id="E8yKg5pymLhxsKJmagK--57" value="TGT_CREATE和POOL_CREATE区别&lt;br&gt;&lt;br&gt;&lt;b&gt;TGT_CREATE&lt;/b&gt;: 将容量请求广播到所有ranks, rank根据自身的target数量拆分容量请求。&lt;br&gt;最后广播到所有target线程创建vpool，分配shard空间加入到vea等&lt;br&gt;&lt;b&gt;POOL_CREATE&lt;/b&gt;:&amp;nbsp; 根据冗余率创建pool svc服务，并在pool svc服务上创建rdb，加入raft集群" style="text;html=1;align=left;verticalAlign=middle;resizable=0;points=[];autosize=1;strokeColor=none;fillColor=none;" parent="1" vertex="1">
          <mxGeometry x="870" y="-475" width="510" height="90" as="geometry" />
        </mxCell>
      </root>
    </mxGraphModel>
  </diagram>
  <diagram id="jfZ1nagjq38udCaqmF2r" name="POOL_CONNECT">
    <mxGraphModel dx="1024" dy="635" grid="0" gridSize="10" guides="1" tooltips="1" connect="1" arrows="1" fold="1" page="1" pageScale="1" pageWidth="1200" pageHeight="1600" math="0" shadow="0">
      <root>
        <mxCell id="0" />
        <mxCell id="1" parent="0" />
        <mxCell id="TllQmv1ivaf3xxIAeNgu-2" value="dao_init" style="dashed=1;rounded=1;absoluteArcSize=1;arcSize=20;html=1;verticalAlign=top;align=left;spacingTop=5;spacingLeft=10;" parent="1" vertex="1">
          <mxGeometry x="160" y="220" width="660" height="110" as="geometry" />
        </mxCell>
        <mxCell id="jRjJIuM_uTAPznZiJXjt-3" value="libdaos" style="shape=umlLifeline;participant=umlEntity;perimeter=lifelinePerimeter;whiteSpace=wrap;html=1;container=1;collapsible=0;recursiveResize=0;verticalAlign=top;spacingTop=36;outlineConnect=0;" parent="1" vertex="1">
          <mxGeometry x="200" y="120" width="40" height="920" as="geometry" />
        </mxCell>
        <mxCell id="jRjJIuM_uTAPznZiJXjt-12" value="" style="html=1;points=[];perimeter=orthogonalPerimeter;" parent="jRjJIuM_uTAPznZiJXjt-3" vertex="1">
          <mxGeometry x="15" y="190" width="10" height="470" as="geometry" />
        </mxCell>
        <mxCell id="jRjJIuM_uTAPznZiJXjt-35" value="" style="html=1;points=[];perimeter=orthogonalPerimeter;" parent="jRjJIuM_uTAPznZiJXjt-3" vertex="1">
          <mxGeometry x="21" y="260" width="10" height="40" as="geometry" />
        </mxCell>
        <mxCell id="jRjJIuM_uTAPznZiJXjt-36" value="5. 选择下一个rank" style="edgeStyle=orthogonalEdgeStyle;html=1;align=left;spacingLeft=2;endArrow=block;rounded=0;entryX=1;entryY=0;" parent="jRjJIuM_uTAPznZiJXjt-3" source="jRjJIuM_uTAPznZiJXjt-12" target="jRjJIuM_uTAPznZiJXjt-35" edge="1">
          <mxGeometry relative="1" as="geometry">
            <mxPoint x="25" y="230" as="sourcePoint" />
            <Array as="points">
              <mxPoint x="55" y="240" />
              <mxPoint x="55" y="260" />
            </Array>
          </mxGeometry>
        </mxCell>
        <mxCell id="jRjJIuM_uTAPznZiJXjt-38" value="" style="html=1;points=[];perimeter=orthogonalPerimeter;" parent="jRjJIuM_uTAPznZiJXjt-3" vertex="1">
          <mxGeometry x="21" y="510" width="10" height="40" as="geometry" />
        </mxCell>
        <mxCell id="jRjJIuM_uTAPznZiJXjt-39" value="9.根据pool_buf建立pool_map&amp;nbsp;" style="edgeStyle=orthogonalEdgeStyle;html=1;align=left;spacingLeft=2;endArrow=block;rounded=0;entryX=1;entryY=0;" parent="jRjJIuM_uTAPznZiJXjt-3" target="jRjJIuM_uTAPznZiJXjt-38" edge="1">
          <mxGeometry relative="1" as="geometry">
            <mxPoint x="25" y="480" as="sourcePoint" />
            <Array as="points">
              <mxPoint x="51" y="480" />
              <mxPoint x="51" y="510" />
            </Array>
          </mxGeometry>
        </mxCell>
        <mxCell id="jRjJIuM_uTAPznZiJXjt-4" value="daos_agent" style="shape=umlLifeline;participant=umlEntity;perimeter=lifelinePerimeter;whiteSpace=wrap;html=1;container=1;collapsible=0;recursiveResize=0;verticalAlign=top;spacingTop=36;outlineConnect=0;" parent="1" vertex="1">
          <mxGeometry x="440" y="120" width="40" height="920" as="geometry" />
        </mxCell>
        <mxCell id="jRjJIuM_uTAPznZiJXjt-8" value="" style="html=1;points=[];perimeter=orthogonalPerimeter;" parent="jRjJIuM_uTAPznZiJXjt-4" vertex="1">
          <mxGeometry x="15" y="120" width="10" height="80" as="geometry" />
        </mxCell>
        <mxCell id="jRjJIuM_uTAPznZiJXjt-40" value="" style="html=1;points=[];perimeter=orthogonalPerimeter;" parent="jRjJIuM_uTAPznZiJXjt-4" vertex="1">
          <mxGeometry x="15" y="570" width="10" height="80" as="geometry" />
        </mxCell>
        <mxCell id="jRjJIuM_uTAPznZiJXjt-5" value="rank/pool_leader" style="shape=umlLifeline;participant=umlEntity;perimeter=lifelinePerimeter;whiteSpace=wrap;html=1;container=1;collapsible=0;recursiveResize=0;verticalAlign=top;spacingTop=36;outlineConnect=0;" parent="1" vertex="1">
          <mxGeometry x="740" y="120" width="40" height="920" as="geometry" />
        </mxCell>
        <mxCell id="jRjJIuM_uTAPznZiJXjt-13" value="" style="html=1;points=[];perimeter=orthogonalPerimeter;" parent="jRjJIuM_uTAPznZiJXjt-5" vertex="1">
          <mxGeometry x="15" y="260" width="10" height="210" as="geometry" />
        </mxCell>
        <mxCell id="jRjJIuM_uTAPznZiJXjt-7" value="daos_server leader" style="shape=umlLifeline;participant=umlEntity;perimeter=lifelinePerimeter;whiteSpace=wrap;html=1;container=1;collapsible=0;recursiveResize=0;verticalAlign=top;spacingTop=36;outlineConnect=0;" parent="1" vertex="1">
          <mxGeometry x="600" y="120" width="40" height="920" as="geometry" />
        </mxCell>
        <mxCell id="DSg4droQ8YJbECYLVYEF-1" value="" style="html=1;points=[];perimeter=orthogonalPerimeter;" parent="jRjJIuM_uTAPznZiJXjt-7" vertex="1">
          <mxGeometry x="15" y="140" width="10" height="50" as="geometry" />
        </mxCell>
        <mxCell id="jRjJIuM_uTAPznZiJXjt-9" value="1. drpc:all_rank=true" style="html=1;verticalAlign=bottom;endArrow=block;entryX=0;entryY=0;rounded=0;" parent="1" source="jRjJIuM_uTAPznZiJXjt-3" target="jRjJIuM_uTAPznZiJXjt-8" edge="1">
          <mxGeometry relative="1" as="geometry">
            <mxPoint x="230" y="240" as="sourcePoint" />
          </mxGeometry>
        </mxCell>
        <mxCell id="jRjJIuM_uTAPznZiJXjt-10" value="4. rank list" style="html=1;verticalAlign=bottom;endArrow=open;dashed=1;endSize=8;exitX=0;exitY=0.95;rounded=0;" parent="1" source="jRjJIuM_uTAPznZiJXjt-8" edge="1">
          <mxGeometry relative="1" as="geometry">
            <mxPoint x="230" y="316" as="targetPoint" />
          </mxGeometry>
        </mxCell>
        <mxCell id="jRjJIuM_uTAPznZiJXjt-14" value="6. pool_uuid" style="html=1;verticalAlign=bottom;endArrow=block;rounded=0;entryX=0.08;entryY=0.213;entryDx=0;entryDy=0;entryPerimeter=0;" parent="1" target="jRjJIuM_uTAPznZiJXjt-13" edge="1">
          <mxGeometry relative="1" as="geometry">
            <mxPoint x="230" y="425" as="sourcePoint" />
            <mxPoint x="750" y="414" as="targetPoint" />
          </mxGeometry>
        </mxCell>
        <mxCell id="jRjJIuM_uTAPznZiJXjt-15" value="8. bulk transfer: pool_buf" style="html=1;verticalAlign=bottom;endArrow=open;dashed=1;endSize=8;rounded=0;exitX=-0.054;exitY=0.881;exitDx=0;exitDy=0;exitPerimeter=0;" parent="1" source="jRjJIuM_uTAPznZiJXjt-13" edge="1">
          <mxGeometry x="-0.0257" y="-2" relative="1" as="geometry">
            <mxPoint x="230" y="565" as="targetPoint" />
            <mxPoint x="760" y="416" as="sourcePoint" />
            <mxPoint as="offset" />
          </mxGeometry>
        </mxCell>
        <mxCell id="jRjJIuM_uTAPznZiJXjt-30" value="7. 返回命中的leader" style="html=1;verticalAlign=bottom;endArrow=open;dashed=1;endSize=8;rounded=0;exitX=-0.16;exitY=0.595;exitDx=0;exitDy=0;exitPerimeter=0;" parent="1" source="jRjJIuM_uTAPznZiJXjt-13" edge="1">
          <mxGeometry x="-0.0257" y="-2" relative="1" as="geometry">
            <mxPoint x="230" y="505" as="targetPoint" />
            <mxPoint x="764.46" y="570.25" as="sourcePoint" />
            <mxPoint as="offset" />
          </mxGeometry>
        </mxCell>
        <mxCell id="jRjJIuM_uTAPznZiJXjt-41" value="10. pool_uuid,jobid" style="html=1;verticalAlign=bottom;endArrow=block;entryX=0;entryY=0;rounded=0;" parent="1" target="jRjJIuM_uTAPznZiJXjt-40" edge="1">
          <mxGeometry relative="1" as="geometry">
            <mxPoint x="230" y="690" as="sourcePoint" />
          </mxGeometry>
        </mxCell>
        <mxCell id="jRjJIuM_uTAPznZiJXjt-42" value="11.成功" style="html=1;verticalAlign=bottom;endArrow=open;dashed=1;endSize=8;exitX=0;exitY=0.95;rounded=0;" parent="1" source="jRjJIuM_uTAPznZiJXjt-40" edge="1">
          <mxGeometry relative="1" as="geometry">
            <mxPoint x="230" y="766" as="targetPoint" />
          </mxGeometry>
        </mxCell>
        <mxCell id="DSg4droQ8YJbECYLVYEF-2" value="2. 查询rank列表" style="html=1;verticalAlign=bottom;endArrow=block;rounded=0;" parent="1" target="DSg4droQ8YJbECYLVYEF-1" edge="1">
          <mxGeometry relative="1" as="geometry">
            <mxPoint x="470" y="260" as="sourcePoint" />
          </mxGeometry>
        </mxCell>
        <mxCell id="DSg4droQ8YJbECYLVYEF-3" value="3. 返回rank列表" style="html=1;verticalAlign=bottom;endArrow=open;dashed=1;endSize=8;exitX=0;exitY=0.95;rounded=0;" parent="1" source="DSg4droQ8YJbECYLVYEF-1" target="jRjJIuM_uTAPznZiJXjt-4" edge="1">
          <mxGeometry relative="1" as="geometry">
            <mxPoint x="545" y="316" as="targetPoint" />
          </mxGeometry>
        </mxCell>
        <mxCell id="jRjJIuM_uTAPznZiJXjt-37" value="LOOP" style="shape=umlFrame;whiteSpace=wrap;html=1;width=50;height=20;" parent="1" vertex="1">
          <mxGeometry x="160" y="340" width="650" height="200" as="geometry" />
        </mxCell>
      </root>
    </mxGraphModel>
  </diagram>
  <diagram id="LJMnftwlM7X_n2LDJgMe" name="CONT_CONNECT">
    <mxGraphModel dx="954" dy="656" grid="0" gridSize="10" guides="1" tooltips="1" connect="1" arrows="1" fold="1" page="1" pageScale="1" pageWidth="1200" pageHeight="1600" math="0" shadow="0">
      <root>
        <mxCell id="0" />
        <mxCell id="1" parent="0" />
        <mxCell id="iAlbZ6mBzEKLd2CpEp1j-1" value="LOOP" style="shape=umlFrame;whiteSpace=wrap;html=1;width=50;height=20;" parent="1" vertex="1">
          <mxGeometry x="80" y="180" width="650" height="210" as="geometry" />
        </mxCell>
        <mxCell id="iAlbZ6mBzEKLd2CpEp1j-2" value="libdaos" style="shape=umlLifeline;participant=umlEntity;perimeter=lifelinePerimeter;whiteSpace=wrap;html=1;container=1;collapsible=0;recursiveResize=0;verticalAlign=top;spacingTop=36;outlineConnect=0;" parent="1" vertex="1">
          <mxGeometry x="120" y="80" width="40" height="920" as="geometry" />
        </mxCell>
        <mxCell id="iAlbZ6mBzEKLd2CpEp1j-3" value="" style="html=1;points=[];perimeter=orthogonalPerimeter;" parent="iAlbZ6mBzEKLd2CpEp1j-2" vertex="1">
          <mxGeometry x="15" y="80" width="10" height="470" as="geometry" />
        </mxCell>
        <mxCell id="iAlbZ6mBzEKLd2CpEp1j-4" value="" style="html=1;points=[];perimeter=orthogonalPerimeter;" parent="iAlbZ6mBzEKLd2CpEp1j-2" vertex="1">
          <mxGeometry x="21" y="150" width="10" height="40" as="geometry" />
        </mxCell>
        <mxCell id="iAlbZ6mBzEKLd2CpEp1j-5" value="1. 选择下一个rank" style="edgeStyle=orthogonalEdgeStyle;html=1;align=left;spacingLeft=2;endArrow=block;rounded=0;entryX=1;entryY=0;" parent="iAlbZ6mBzEKLd2CpEp1j-2" source="iAlbZ6mBzEKLd2CpEp1j-3" target="iAlbZ6mBzEKLd2CpEp1j-4" edge="1">
          <mxGeometry relative="1" as="geometry">
            <mxPoint x="25" y="120" as="sourcePoint" />
            <Array as="points">
              <mxPoint x="55" y="130" />
              <mxPoint x="55" y="150" />
            </Array>
          </mxGeometry>
        </mxCell>
        <mxCell id="iAlbZ6mBzEKLd2CpEp1j-6" value="" style="html=1;points=[];perimeter=orthogonalPerimeter;" parent="iAlbZ6mBzEKLd2CpEp1j-2" vertex="1">
          <mxGeometry x="21" y="400" width="10" height="40" as="geometry" />
        </mxCell>
        <mxCell id="iAlbZ6mBzEKLd2CpEp1j-7" value="5. 缓存容器属性" style="edgeStyle=orthogonalEdgeStyle;html=1;align=left;spacingLeft=2;endArrow=block;rounded=0;entryX=1;entryY=0;" parent="iAlbZ6mBzEKLd2CpEp1j-2" target="iAlbZ6mBzEKLd2CpEp1j-6" edge="1">
          <mxGeometry relative="1" as="geometry">
            <mxPoint x="25" y="370" as="sourcePoint" />
            <Array as="points">
              <mxPoint x="51" y="370" />
              <mxPoint x="51" y="400" />
            </Array>
          </mxGeometry>
        </mxCell>
        <mxCell id="iAlbZ6mBzEKLd2CpEp1j-11" value="rank/pool_leader" style="shape=umlLifeline;participant=umlEntity;perimeter=lifelinePerimeter;whiteSpace=wrap;html=1;container=1;collapsible=0;recursiveResize=0;verticalAlign=top;spacingTop=36;outlineConnect=0;" parent="1" vertex="1">
          <mxGeometry x="660" y="80" width="40" height="920" as="geometry" />
        </mxCell>
        <mxCell id="iAlbZ6mBzEKLd2CpEp1j-12" value="" style="html=1;points=[];perimeter=orthogonalPerimeter;" parent="iAlbZ6mBzEKLd2CpEp1j-11" vertex="1">
          <mxGeometry x="15" y="190" width="10" height="170" as="geometry" />
        </mxCell>
        <mxCell id="iAlbZ6mBzEKLd2CpEp1j-16" value="2. cont_uuid、pool_uuid" style="html=1;verticalAlign=bottom;endArrow=block;rounded=0;" parent="1" source="iAlbZ6mBzEKLd2CpEp1j-3" target="iAlbZ6mBzEKLd2CpEp1j-12" edge="1">
          <mxGeometry relative="1" as="geometry">
            <mxPoint x="150" y="300" as="sourcePoint" />
            <mxPoint x="670" y="276" as="targetPoint" />
            <Array as="points">
              <mxPoint x="490" y="290" />
            </Array>
          </mxGeometry>
        </mxCell>
        <mxCell id="iAlbZ6mBzEKLd2CpEp1j-17" value="4. 容器属性：冗余、EC、cell_size等" style="html=1;verticalAlign=bottom;endArrow=open;dashed=1;endSize=8;rounded=0;" parent="1" source="iAlbZ6mBzEKLd2CpEp1j-12" edge="1">
          <mxGeometry x="-0.0257" y="-2" relative="1" as="geometry">
            <mxPoint x="149.99999999999977" y="415" as="targetPoint" />
            <mxPoint x="670" y="418" as="sourcePoint" />
            <mxPoint as="offset" />
          </mxGeometry>
        </mxCell>
        <mxCell id="iAlbZ6mBzEKLd2CpEp1j-18" value="3. 返回命中的leader" style="html=1;verticalAlign=bottom;endArrow=open;dashed=1;endSize=8;rounded=0;" parent="1" source="iAlbZ6mBzEKLd2CpEp1j-12" edge="1">
          <mxGeometry x="-0.0257" y="-2" relative="1" as="geometry">
            <mxPoint x="149.99999999999977" y="355" as="targetPoint" />
            <mxPoint x="673" y="371" as="sourcePoint" />
            <mxPoint as="offset" />
          </mxGeometry>
        </mxCell>
      </root>
    </mxGraphModel>
  </diagram>
  <diagram id="Ja6Qf3c7xJzcq2cp3iw7" name="DFS_OPEN">
    <mxGraphModel dx="1024" dy="635" grid="0" gridSize="10" guides="1" tooltips="1" connect="1" arrows="1" fold="1" page="1" pageScale="1" pageWidth="1200" pageHeight="1600" math="0" shadow="0">
      <root>
        <mxCell id="0" />
        <mxCell id="1" parent="0" />
        <mxCell id="Mm-tcWC2zMdccf7-ohPG-1" value="" style="shape=umlLifeline;participant=umlEntity;perimeter=lifelinePerimeter;whiteSpace=wrap;html=1;container=1;collapsible=0;recursiveResize=0;verticalAlign=top;spacingTop=36;outlineConnect=0;" parent="1" vertex="1">
          <mxGeometry x="740" y="360" width="40" height="840" as="geometry" />
        </mxCell>
        <mxCell id="ge_6mRhwB9QYdB2WmilP-1" value="dfs" style="shape=umlLifeline;participant=umlEntity;perimeter=lifelinePerimeter;whiteSpace=wrap;html=1;container=1;collapsible=0;recursiveResize=0;verticalAlign=top;spacingTop=36;outlineConnect=0;" parent="1" vertex="1">
          <mxGeometry x="160" y="360" width="40" height="850" as="geometry" />
        </mxCell>
        <mxCell id="RohRZTucw5Ui29XzlVBg-4" value="" style="html=1;points=[];perimeter=orthogonalPerimeter;" parent="ge_6mRhwB9QYdB2WmilP-1" vertex="1">
          <mxGeometry x="15" y="210" width="10" height="550" as="geometry" />
        </mxCell>
        <mxCell id="RohRZTucw5Ui29XzlVBg-17" value="" style="html=1;points=[];perimeter=orthogonalPerimeter;" parent="ge_6mRhwB9QYdB2WmilP-1" vertex="1">
          <mxGeometry x="20" y="246" width="10" height="40" as="geometry" />
        </mxCell>
        <mxCell id="RohRZTucw5Ui29XzlVBg-18" value="5. 如果文件实体已经存在，直接返回" style="edgeStyle=orthogonalEdgeStyle;html=1;align=left;spacingLeft=2;endArrow=block;rounded=0;entryX=1;entryY=0;" parent="ge_6mRhwB9QYdB2WmilP-1" source="RohRZTucw5Ui29XzlVBg-4" target="RohRZTucw5Ui29XzlVBg-17" edge="1">
          <mxGeometry relative="1" as="geometry">
            <mxPoint x="25" y="202" as="sourcePoint" />
            <Array as="points">
              <mxPoint x="55" y="216" />
              <mxPoint x="55" y="246" />
            </Array>
          </mxGeometry>
        </mxCell>
        <mxCell id="RohRZTucw5Ui29XzlVBg-23" value="" style="html=1;points=[];perimeter=orthogonalPerimeter;" parent="ge_6mRhwB9QYdB2WmilP-1" vertex="1">
          <mxGeometry x="20" y="312" width="10" height="40" as="geometry" />
        </mxCell>
        <mxCell id="RohRZTucw5Ui29XzlVBg-24" value="6. 根据容器属性class生成oid" style="edgeStyle=orthogonalEdgeStyle;html=1;align=left;spacingLeft=2;endArrow=block;rounded=0;entryX=1;entryY=0;" parent="ge_6mRhwB9QYdB2WmilP-1" target="RohRZTucw5Ui29XzlVBg-23" edge="1">
          <mxGeometry relative="1" as="geometry">
            <mxPoint x="25" y="292" as="sourcePoint" />
            <Array as="points">
              <mxPoint x="55" y="292" />
            </Array>
          </mxGeometry>
        </mxCell>
        <mxCell id="RohRZTucw5Ui29XzlVBg-1" value="libdaos" style="shape=umlLifeline;participant=umlEntity;perimeter=lifelinePerimeter;whiteSpace=wrap;html=1;container=1;collapsible=0;recursiveResize=0;verticalAlign=top;spacingTop=36;outlineConnect=0;" parent="1" vertex="1">
          <mxGeometry x="440" y="360" width="40" height="890" as="geometry" />
        </mxCell>
        <mxCell id="RohRZTucw5Ui29XzlVBg-8" value="" style="html=1;points=[];perimeter=orthogonalPerimeter;" parent="RohRZTucw5Ui29XzlVBg-1" vertex="1">
          <mxGeometry x="15" y="52" width="10" height="120" as="geometry" />
        </mxCell>
        <mxCell id="RohRZTucw5Ui29XzlVBg-25" value="" style="html=1;points=[];perimeter=orthogonalPerimeter;" parent="RohRZTucw5Ui29XzlVBg-1" vertex="1">
          <mxGeometry x="15" y="362" width="10" height="170" as="geometry" />
        </mxCell>
        <mxCell id="RohRZTucw5Ui29XzlVBg-28" value="" style="html=1;points=[];perimeter=orthogonalPerimeter;" parent="RohRZTucw5Ui29XzlVBg-1" vertex="1">
          <mxGeometry x="20" y="412" width="10" height="40" as="geometry" />
        </mxCell>
        <mxCell id="RohRZTucw5Ui29XzlVBg-29" value="8. 根据pool_map生成对象layout" style="edgeStyle=orthogonalEdgeStyle;html=1;align=left;spacingLeft=2;endArrow=block;rounded=0;entryX=1;entryY=0;" parent="RohRZTucw5Ui29XzlVBg-1" target="RohRZTucw5Ui29XzlVBg-28" edge="1">
          <mxGeometry relative="1" as="geometry">
            <mxPoint x="25" y="392" as="sourcePoint" />
            <Array as="points">
              <mxPoint x="55" y="392" />
            </Array>
          </mxGeometry>
        </mxCell>
        <mxCell id="RohRZTucw5Ui29XzlVBg-31" value="" style="html=1;points=[];perimeter=orthogonalPerimeter;" parent="RohRZTucw5Ui29XzlVBg-1" vertex="1">
          <mxGeometry x="15" y="592" width="10" height="80" as="geometry" />
        </mxCell>
        <mxCell id="RohRZTucw5Ui29XzlVBg-2" value="target" style="shape=umlLifeline;participant=umlEntity;perimeter=lifelinePerimeter;whiteSpace=wrap;html=1;container=1;collapsible=0;recursiveResize=0;verticalAlign=top;spacingTop=36;outlineConnect=0;" parent="1" vertex="1">
          <mxGeometry x="720" y="360" width="40" height="840" as="geometry" />
        </mxCell>
        <mxCell id="RohRZTucw5Ui29XzlVBg-11" value="" style="html=1;points=[];perimeter=orthogonalPerimeter;" parent="RohRZTucw5Ui29XzlVBg-2" vertex="1">
          <mxGeometry x="15" y="72" width="10" height="80" as="geometry" />
        </mxCell>
        <mxCell id="RohRZTucw5Ui29XzlVBg-36" value="" style="html=1;points=[];perimeter=orthogonalPerimeter;" parent="RohRZTucw5Ui29XzlVBg-2" vertex="1">
          <mxGeometry x="15" y="612" width="10" height="50" as="geometry" />
        </mxCell>
        <mxCell id="RohRZTucw5Ui29XzlVBg-9" value="1. 以文件名DK名，提取根目录对象" style="html=1;verticalAlign=bottom;endArrow=block;rounded=0;" parent="1" target="RohRZTucw5Ui29XzlVBg-8" edge="1">
          <mxGeometry relative="1" as="geometry">
            <mxPoint x="179.5" y="422" as="sourcePoint" />
            <Array as="points">
              <mxPoint x="350" y="422" />
            </Array>
          </mxGeometry>
        </mxCell>
        <mxCell id="RohRZTucw5Ui29XzlVBg-10" value="4. 返回实体" style="html=1;verticalAlign=bottom;endArrow=open;dashed=1;endSize=8;exitX=0;exitY=0.95;rounded=0;" parent="1" source="RohRZTucw5Ui29XzlVBg-8" edge="1">
          <mxGeometry relative="1" as="geometry">
            <mxPoint x="185" y="526" as="targetPoint" />
          </mxGeometry>
        </mxCell>
        <mxCell id="RohRZTucw5Ui29XzlVBg-12" value="2. FETCH流程" style="html=1;verticalAlign=bottom;endArrow=block;entryX=0;entryY=0;rounded=0;" parent="1" source="RohRZTucw5Ui29XzlVBg-8" target="RohRZTucw5Ui29XzlVBg-11" edge="1">
          <mxGeometry relative="1" as="geometry">
            <mxPoint x="665" y="432" as="sourcePoint" />
          </mxGeometry>
        </mxCell>
        <mxCell id="RohRZTucw5Ui29XzlVBg-13" value="3. 返回DK对应的数据" style="html=1;verticalAlign=bottom;endArrow=open;dashed=1;endSize=8;exitX=0;exitY=0.95;rounded=0;" parent="1" source="RohRZTucw5Ui29XzlVBg-11" edge="1">
          <mxGeometry relative="1" as="geometry">
            <mxPoint x="470" y="508" as="targetPoint" />
          </mxGeometry>
        </mxCell>
        <mxCell id="RohRZTucw5Ui29XzlVBg-26" value="7. 打开对象" style="html=1;verticalAlign=bottom;endArrow=block;entryX=0;entryY=0;rounded=0;" parent="1" target="RohRZTucw5Ui29XzlVBg-25" edge="1">
          <mxGeometry relative="1" as="geometry">
            <mxPoint x="185" y="722" as="sourcePoint" />
          </mxGeometry>
        </mxCell>
        <mxCell id="RohRZTucw5Ui29XzlVBg-27" value="9. 返回成功" style="html=1;verticalAlign=bottom;endArrow=open;dashed=1;endSize=8;exitX=0;exitY=0.95;rounded=0;" parent="1" source="RohRZTucw5Ui29XzlVBg-25" edge="1">
          <mxGeometry relative="1" as="geometry">
            <mxPoint x="179.5" y="883.4999999999998" as="targetPoint" />
          </mxGeometry>
        </mxCell>
        <mxCell id="RohRZTucw5Ui29XzlVBg-32" value="10. 以文件名为DK插入元数据到根对象" style="html=1;verticalAlign=bottom;endArrow=block;entryX=0;entryY=0;rounded=0;" parent="1" target="RohRZTucw5Ui29XzlVBg-31" edge="1">
          <mxGeometry relative="1" as="geometry">
            <mxPoint x="185" y="952" as="sourcePoint" />
          </mxGeometry>
        </mxCell>
        <mxCell id="RohRZTucw5Ui29XzlVBg-33" value="13. 保存句柄，成功返回" style="html=1;verticalAlign=bottom;endArrow=open;dashed=1;endSize=8;exitX=0;exitY=0.95;rounded=0;" parent="1" source="RohRZTucw5Ui29XzlVBg-31" edge="1">
          <mxGeometry relative="1" as="geometry">
            <mxPoint x="185" y="1028" as="targetPoint" />
          </mxGeometry>
        </mxCell>
        <mxCell id="RohRZTucw5Ui29XzlVBg-37" value="11. UPDATE流程" style="html=1;verticalAlign=bottom;endArrow=block;entryX=0;entryY=0;rounded=0;" parent="1" source="RohRZTucw5Ui29XzlVBg-31" target="RohRZTucw5Ui29XzlVBg-36" edge="1">
          <mxGeometry relative="1" as="geometry">
            <mxPoint x="665" y="942" as="sourcePoint" />
          </mxGeometry>
        </mxCell>
        <mxCell id="RohRZTucw5Ui29XzlVBg-38" value="12. 成功" style="html=1;verticalAlign=bottom;endArrow=open;dashed=1;endSize=8;exitX=0;exitY=0.95;rounded=0;" parent="1" source="RohRZTucw5Ui29XzlVBg-36" target="RohRZTucw5Ui29XzlVBg-31" edge="1">
          <mxGeometry relative="1" as="geometry">
            <mxPoint x="665" y="1018" as="targetPoint" />
          </mxGeometry>
        </mxCell>
      </root>
    </mxGraphModel>
  </diagram>
  <diagram id="oVpJjtq8RAhaC-mshdVz" name="DFS_WRITE">
    <mxGraphModel dx="1575" dy="977" grid="1" gridSize="10" guides="1" tooltips="1" connect="1" arrows="1" fold="1" page="1" pageScale="1" pageWidth="1200" pageHeight="1600" math="0" shadow="0">
      <root>
        <mxCell id="0" />
        <mxCell id="1" parent="0" />
        <mxCell id="l7co6i7dDfrptzHn_urH-1" value="dfs" style="shape=umlLifeline;participant=umlEntity;perimeter=lifelinePerimeter;whiteSpace=wrap;html=1;container=1;collapsible=0;recursiveResize=0;verticalAlign=top;spacingTop=36;outlineConnect=0;" parent="1" vertex="1">
          <mxGeometry x="170" y="120" width="40" height="1550" as="geometry" />
        </mxCell>
        <mxCell id="l7co6i7dDfrptzHn_urH-2" value="libdaos" style="shape=umlLifeline;participant=umlEntity;perimeter=lifelinePerimeter;whiteSpace=wrap;html=1;container=1;collapsible=0;recursiveResize=0;verticalAlign=top;spacingTop=36;outlineConnect=0;" parent="1" vertex="1">
          <mxGeometry x="330" y="120" width="40" height="1550" as="geometry" />
        </mxCell>
        <mxCell id="M-8RfkNbeH-WQnAhFL9m-1" value="" style="html=1;points=[];perimeter=orthogonalPerimeter;" parent="l7co6i7dDfrptzHn_urH-2" vertex="1">
          <mxGeometry x="15" y="120" width="10" height="810" as="geometry" />
        </mxCell>
        <mxCell id="M-8RfkNbeH-WQnAhFL9m-6" value="" style="html=1;points=[];perimeter=orthogonalPerimeter;" parent="l7co6i7dDfrptzHn_urH-2" vertex="1">
          <mxGeometry x="20" y="190" width="10" height="40" as="geometry" />
        </mxCell>
        <mxCell id="M-8RfkNbeH-WQnAhFL9m-7" value="2. 按照1M对齐进行拆分DK数据" style="edgeStyle=orthogonalEdgeStyle;html=1;align=left;spacingLeft=2;endArrow=block;rounded=0;entryX=1;entryY=0;" parent="l7co6i7dDfrptzHn_urH-2" target="M-8RfkNbeH-WQnAhFL9m-6" edge="1">
          <mxGeometry relative="1" as="geometry">
            <mxPoint x="25" y="170" as="sourcePoint" />
            <Array as="points">
              <mxPoint x="55" y="170" />
            </Array>
          </mxGeometry>
        </mxCell>
        <mxCell id="M-8RfkNbeH-WQnAhFL9m-12" value="" style="html=1;points=[];perimeter=orthogonalPerimeter;" parent="l7co6i7dDfrptzHn_urH-2" vertex="1">
          <mxGeometry x="21" y="290" width="10" height="40" as="geometry" />
        </mxCell>
        <mxCell id="M-8RfkNbeH-WQnAhFL9m-13" value="3. 将拆分的DK组装成新的IOD和SGL" style="edgeStyle=orthogonalEdgeStyle;html=1;align=left;spacingLeft=2;endArrow=block;rounded=0;entryX=1;entryY=0;" parent="l7co6i7dDfrptzHn_urH-2" source="M-8RfkNbeH-WQnAhFL9m-1" target="M-8RfkNbeH-WQnAhFL9m-12" edge="1">
          <mxGeometry relative="1" as="geometry">
            <mxPoint x="30" y="270" as="sourcePoint" />
            <Array as="points">
              <mxPoint x="60" y="270" />
              <mxPoint x="60" y="290" />
            </Array>
          </mxGeometry>
        </mxCell>
        <mxCell id="l7co6i7dDfrptzHn_urH-3" value="cli_obj" style="shape=umlLifeline;participant=umlEntity;perimeter=lifelinePerimeter;whiteSpace=wrap;html=1;container=1;collapsible=0;recursiveResize=0;verticalAlign=top;spacingTop=36;outlineConnect=0;fillStyle=hatch;fillColor=#CCE5FF;" parent="1" vertex="1">
          <mxGeometry x="520" y="120" width="40" height="1540" as="geometry" />
        </mxCell>
        <mxCell id="M-8RfkNbeH-WQnAhFL9m-14" value="" style="html=1;points=[];perimeter=orthogonalPerimeter;" parent="l7co6i7dDfrptzHn_urH-3" vertex="1">
          <mxGeometry x="15" y="360" width="10" height="550" as="geometry" />
        </mxCell>
        <mxCell id="M-8RfkNbeH-WQnAhFL9m-17" value="" style="html=1;points=[];perimeter=orthogonalPerimeter;" parent="l7co6i7dDfrptzHn_urH-3" vertex="1">
          <mxGeometry x="20" y="410" width="10" height="40" as="geometry" />
        </mxCell>
        <mxCell id="M-8RfkNbeH-WQnAhFL9m-18" value="5. 根据DK哈希散列，计算出数据冗余组" style="edgeStyle=orthogonalEdgeStyle;html=1;align=left;spacingLeft=2;endArrow=block;rounded=0;entryX=1;entryY=0;" parent="l7co6i7dDfrptzHn_urH-3" target="M-8RfkNbeH-WQnAhFL9m-17" edge="1">
          <mxGeometry relative="1" as="geometry">
            <mxPoint x="25" y="390" as="sourcePoint" />
            <Array as="points">
              <mxPoint x="55" y="390" />
            </Array>
          </mxGeometry>
        </mxCell>
        <mxCell id="M-8RfkNbeH-WQnAhFL9m-24" value="" style="html=1;points=[];perimeter=orthogonalPerimeter;" parent="l7co6i7dDfrptzHn_urH-3" vertex="1">
          <mxGeometry x="20" y="480" width="10" height="40" as="geometry" />
        </mxCell>
        <mxCell id="M-8RfkNbeH-WQnAhFL9m-25" value="6. 如果是EC需要重新组装分片" style="edgeStyle=orthogonalEdgeStyle;html=1;align=left;spacingLeft=2;endArrow=block;rounded=0;entryX=1;entryY=0;" parent="l7co6i7dDfrptzHn_urH-3" target="M-8RfkNbeH-WQnAhFL9m-24" edge="1">
          <mxGeometry relative="1" as="geometry">
            <mxPoint x="25" y="460" as="sourcePoint" />
            <Array as="points">
              <mxPoint x="55" y="460" />
            </Array>
          </mxGeometry>
        </mxCell>
        <mxCell id="l7co6i7dDfrptzHn_urH-4" value="primary target/srv_obj" style="shape=umlLifeline;participant=umlEntity;perimeter=lifelinePerimeter;whiteSpace=wrap;html=1;container=1;collapsible=0;recursiveResize=0;verticalAlign=top;spacingTop=36;outlineConnect=0;" parent="1" vertex="1">
          <mxGeometry x="680" y="120" width="40" height="1550" as="geometry" />
        </mxCell>
        <mxCell id="M-8RfkNbeH-WQnAhFL9m-19" value="" style="html=1;points=[];perimeter=orthogonalPerimeter;" parent="l7co6i7dDfrptzHn_urH-4" vertex="1">
          <mxGeometry x="15" y="550" width="10" height="290" as="geometry" />
        </mxCell>
        <mxCell id="PnxUY5nkc-VtbSQD8sAR-3" value="vos" style="shape=umlLifeline;participant=umlEntity;perimeter=lifelinePerimeter;whiteSpace=wrap;html=1;container=1;collapsible=0;recursiveResize=0;verticalAlign=top;spacingTop=36;outlineConnect=0;" parent="1" vertex="1">
          <mxGeometry x="880" y="200" width="40" height="1550" as="geometry" />
        </mxCell>
        <mxCell id="M-8RfkNbeH-WQnAhFL9m-30" value="" style="html=1;points=[];perimeter=orthogonalPerimeter;" parent="PnxUY5nkc-VtbSQD8sAR-3" vertex="1">
          <mxGeometry x="15" y="580" width="10" height="220" as="geometry" />
        </mxCell>
        <mxCell id="PnxUY5nkc-VtbSQD8sAR-4" value="bio" style="shape=umlLifeline;participant=umlEntity;perimeter=lifelinePerimeter;whiteSpace=wrap;html=1;container=1;collapsible=0;recursiveResize=0;verticalAlign=top;spacingTop=36;outlineConnect=0;" parent="1" vertex="1">
          <mxGeometry x="1080" y="200" width="40" height="1550" as="geometry" />
        </mxCell>
        <mxCell id="M-8RfkNbeH-WQnAhFL9m-33" value="" style="html=1;points=[];perimeter=orthogonalPerimeter;" parent="PnxUY5nkc-VtbSQD8sAR-4" vertex="1">
          <mxGeometry x="15" y="590" width="10" height="80" as="geometry" />
        </mxCell>
        <mxCell id="M-8RfkNbeH-WQnAhFL9m-2" value="1.array_write" style="html=1;verticalAlign=bottom;endArrow=block;entryX=0;entryY=0;rounded=0;" parent="1" source="l7co6i7dDfrptzHn_urH-1" target="M-8RfkNbeH-WQnAhFL9m-1" edge="1">
          <mxGeometry relative="1" as="geometry">
            <mxPoint x="275" y="240" as="sourcePoint" />
          </mxGeometry>
        </mxCell>
        <mxCell id="M-8RfkNbeH-WQnAhFL9m-3" value="15. 成功返回" style="html=1;verticalAlign=bottom;endArrow=open;dashed=1;endSize=8;exitX=0;exitY=0.95;rounded=0;" parent="1" source="M-8RfkNbeH-WQnAhFL9m-1" target="l7co6i7dDfrptzHn_urH-1" edge="1">
          <mxGeometry relative="1" as="geometry">
            <mxPoint x="275" y="316" as="targetPoint" />
          </mxGeometry>
        </mxCell>
        <mxCell id="M-8RfkNbeH-WQnAhFL9m-15" value="4. OBJ_UPDATE" style="html=1;verticalAlign=bottom;endArrow=block;entryX=0;entryY=0;rounded=0;" parent="1" source="M-8RfkNbeH-WQnAhFL9m-1" target="M-8RfkNbeH-WQnAhFL9m-14" edge="1">
          <mxGeometry relative="1" as="geometry">
            <mxPoint x="465" y="480" as="sourcePoint" />
          </mxGeometry>
        </mxCell>
        <mxCell id="M-8RfkNbeH-WQnAhFL9m-16" value="14. 成功返回" style="html=1;verticalAlign=bottom;endArrow=open;dashed=1;endSize=8;exitX=0;exitY=0.95;rounded=0;" parent="1" source="M-8RfkNbeH-WQnAhFL9m-14" target="l7co6i7dDfrptzHn_urH-2" edge="1">
          <mxGeometry relative="1" as="geometry">
            <mxPoint x="465" y="556" as="targetPoint" />
          </mxGeometry>
        </mxCell>
        <mxCell id="M-8RfkNbeH-WQnAhFL9m-20" value="7. 默认选择第一个shard&lt;br&gt;发送请求 OBJ_UPDATE" style="html=1;verticalAlign=bottom;endArrow=block;entryX=0;entryY=0;rounded=0;startArrow=none;" parent="1" target="M-8RfkNbeH-WQnAhFL9m-19" edge="1">
          <mxGeometry x="-1" relative="1" as="geometry">
            <mxPoint x="620" y="670" as="sourcePoint" />
            <mxPoint as="offset" />
          </mxGeometry>
        </mxCell>
        <mxCell id="M-8RfkNbeH-WQnAhFL9m-21" value="12. 成功返回" style="html=1;verticalAlign=bottom;endArrow=open;dashed=1;endSize=8;exitX=0;exitY=0.95;rounded=0;" parent="1" edge="1">
          <mxGeometry relative="1" as="geometry">
            <mxPoint x="538.0714285714284" y="945.4999999999991" as="targetPoint" />
            <mxPoint x="694" y="945.4999999999991" as="sourcePoint" />
          </mxGeometry>
        </mxCell>
        <mxCell id="M-8RfkNbeH-WQnAhFL9m-27" value="8. TGT_UPDATE" style="html=1;verticalAlign=bottom;endArrow=block;entryX=0;entryY=0;rounded=0;" parent="1" source="M-8RfkNbeH-WQnAhFL9m-19" target="M-8RfkNbeH-WQnAhFL9m-26" edge="1">
          <mxGeometry relative="1" as="geometry">
            <mxPoint x="710" y="680" as="sourcePoint" />
          </mxGeometry>
        </mxCell>
        <mxCell id="M-8RfkNbeH-WQnAhFL9m-28" value="9. 更新元数据和拉取数据成功之后返回" style="html=1;verticalAlign=bottom;endArrow=open;dashed=1;endSize=8;exitX=0;exitY=0.95;rounded=0;" parent="1" source="M-8RfkNbeH-WQnAhFL9m-26" target="l7co6i7dDfrptzHn_urH-4" edge="1">
          <mxGeometry relative="1" as="geometry">
            <mxPoint x="1250" y="800" as="targetPoint" />
          </mxGeometry>
        </mxCell>
        <mxCell id="M-8RfkNbeH-WQnAhFL9m-31" value="10. vos_update_begin预留空间操作" style="html=1;verticalAlign=bottom;endArrow=block;rounded=0;" parent="1" source="M-8RfkNbeH-WQnAhFL9m-19" target="PnxUY5nkc-VtbSQD8sAR-3" edge="1">
          <mxGeometry relative="1" as="geometry">
            <mxPoint x="710" y="750" as="sourcePoint" />
            <Array as="points">
              <mxPoint x="860" y="780" />
            </Array>
          </mxGeometry>
        </mxCell>
        <mxCell id="M-8RfkNbeH-WQnAhFL9m-32" value="11.vos_update_end更新元数据" style="html=1;verticalAlign=bottom;endArrow=open;dashed=1;endSize=8;exitX=0.157;exitY=0.685;rounded=0;exitDx=0;exitDy=0;exitPerimeter=0;" parent="1" source="M-8RfkNbeH-WQnAhFL9m-30" target="M-8RfkNbeH-WQnAhFL9m-19" edge="1">
          <mxGeometry relative="1" as="geometry">
            <mxPoint x="710" y="826" as="targetPoint" />
          </mxGeometry>
        </mxCell>
        <mxCell id="M-8RfkNbeH-WQnAhFL9m-34" value="11. 申请SPDK空间" style="html=1;verticalAlign=bottom;endArrow=block;entryX=0;entryY=0;rounded=0;" parent="1" source="M-8RfkNbeH-WQnAhFL9m-30" target="M-8RfkNbeH-WQnAhFL9m-33" edge="1">
          <mxGeometry relative="1" as="geometry">
            <mxPoint x="1025" y="750" as="sourcePoint" />
          </mxGeometry>
        </mxCell>
        <mxCell id="M-8RfkNbeH-WQnAhFL9m-35" value="return" style="html=1;verticalAlign=bottom;endArrow=open;dashed=1;endSize=8;exitX=0;exitY=0.95;rounded=0;" parent="1" source="M-8RfkNbeH-WQnAhFL9m-33" target="PnxUY5nkc-VtbSQD8sAR-3" edge="1">
          <mxGeometry relative="1" as="geometry">
            <mxPoint x="1025" y="826" as="targetPoint" />
          </mxGeometry>
        </mxCell>
        <mxCell id="PnxUY5nkc-VtbSQD8sAR-1" value="secondary&lt;br&gt;target" style="shape=umlLifeline;participant=umlEntity;perimeter=lifelinePerimeter;whiteSpace=wrap;html=1;container=1;collapsible=0;recursiveResize=0;verticalAlign=top;spacingTop=36;outlineConnect=0;" parent="1" vertex="1">
          <mxGeometry x="800" y="620" width="40" height="150" as="geometry" />
        </mxCell>
        <mxCell id="M-8RfkNbeH-WQnAhFL9m-26" value="" style="html=1;points=[];perimeter=orthogonalPerimeter;" parent="PnxUY5nkc-VtbSQD8sAR-1" vertex="1">
          <mxGeometry x="15" y="90" width="10" height="30" as="geometry" />
        </mxCell>
        <mxCell id="M-8RfkNbeH-WQnAhFL9m-37" value="" style="html=1;verticalAlign=bottom;endArrow=none;rounded=0;" parent="1" source="l7co6i7dDfrptzHn_urH-3" target="l7co6i7dDfrptzHn_urH-4" edge="1">
          <mxGeometry relative="1" as="geometry">
            <mxPoint x="815" y="670.0000000000005" as="sourcePoint" />
            <mxPoint x="610" y="670" as="targetPoint" />
            <Array as="points">
              <mxPoint x="590" y="670" />
            </Array>
          </mxGeometry>
        </mxCell>
        <mxCell id="M-8RfkNbeH-WQnAhFL9m-36" value="RDMA数据拉取" style="shape=umlFrame;whiteSpace=wrap;html=1;" parent="1" vertex="1">
          <mxGeometry x="510" y="870" width="520" height="40" as="geometry" />
        </mxCell>
        <mxCell id="sD6cUcT2AeGaPsXpgLF_-7" value="cli_obj" style="shape=umlLifeline;participant=umlEntity;perimeter=lifelinePerimeter;whiteSpace=wrap;html=1;container=1;collapsible=0;recursiveResize=0;verticalAlign=top;spacingTop=36;outlineConnect=0;" parent="1" vertex="1">
          <mxGeometry x="1370" y="120" width="45" height="1420" as="geometry" />
        </mxCell>
        <mxCell id="sD6cUcT2AeGaPsXpgLF_-18" value="" style="html=1;points=[];perimeter=orthogonalPerimeter;" parent="sD6cUcT2AeGaPsXpgLF_-7" vertex="1">
          <mxGeometry x="17.5" y="330" width="10" height="610" as="geometry" />
        </mxCell>
        <mxCell id="sD6cUcT2AeGaPsXpgLF_-19" value="" style="html=1;points=[];perimeter=orthogonalPerimeter;" parent="sD6cUcT2AeGaPsXpgLF_-7" vertex="1">
          <mxGeometry x="21" y="410" width="10" height="40" as="geometry" />
        </mxCell>
        <mxCell id="sD6cUcT2AeGaPsXpgLF_-20" value="4. 在客户端调度任务的回调函数obj_cmp_cb进行重试处理" style="edgeStyle=orthogonalEdgeStyle;html=1;align=left;spacingLeft=2;endArrow=block;rounded=0;entryX=1;entryY=0;" parent="sD6cUcT2AeGaPsXpgLF_-7" target="sD6cUcT2AeGaPsXpgLF_-19" edge="1">
          <mxGeometry relative="1" as="geometry">
            <mxPoint x="26" y="390" as="sourcePoint" />
            <Array as="points">
              <mxPoint x="56" y="390" />
            </Array>
          </mxGeometry>
        </mxCell>
        <mxCell id="sD6cUcT2AeGaPsXpgLF_-24" value="" style="html=1;points=[];perimeter=orthogonalPerimeter;" parent="sD6cUcT2AeGaPsXpgLF_-7" vertex="1">
          <mxGeometry x="21" y="500" width="10" height="40" as="geometry" />
        </mxCell>
        <mxCell id="sD6cUcT2AeGaPsXpgLF_-25" value="5. 随机选择一个upin的rank节点， choose_map_refresh_rank" style="edgeStyle=orthogonalEdgeStyle;html=1;align=left;spacingLeft=2;endArrow=block;rounded=0;entryX=1;entryY=0;" parent="sD6cUcT2AeGaPsXpgLF_-7" target="sD6cUcT2AeGaPsXpgLF_-24" edge="1">
          <mxGeometry relative="1" as="geometry">
            <mxPoint x="26" y="480" as="sourcePoint" />
            <Array as="points">
              <mxPoint x="51" y="480" />
              <mxPoint x="51" y="500" />
            </Array>
          </mxGeometry>
        </mxCell>
        <mxCell id="sD6cUcT2AeGaPsXpgLF_-36" value="" style="html=1;points=[];perimeter=orthogonalPerimeter;" parent="sD6cUcT2AeGaPsXpgLF_-7" vertex="1">
          <mxGeometry x="21" y="710" width="10" height="40" as="geometry" />
        </mxCell>
        <mxCell id="sD6cUcT2AeGaPsXpgLF_-37" value="8. 从rank上拉取pool_buf， 重建pool_map，并更新版本号&lt;br&gt;重新生成placement放置组，pl_map_update" style="edgeStyle=orthogonalEdgeStyle;html=1;align=left;spacingLeft=2;endArrow=block;rounded=0;entryX=1;entryY=0;" parent="sD6cUcT2AeGaPsXpgLF_-7" target="sD6cUcT2AeGaPsXpgLF_-36" edge="1">
          <mxGeometry relative="1" as="geometry">
            <mxPoint x="26" y="690" as="sourcePoint" />
            <Array as="points">
              <mxPoint x="56" y="690" />
            </Array>
          </mxGeometry>
        </mxCell>
        <mxCell id="sD6cUcT2AeGaPsXpgLF_-8" value="dfs_write流程" style="text;html=1;align=center;verticalAlign=middle;resizable=0;points=[];autosize=1;strokeColor=none;fillColor=none;fontStyle=1" parent="1" vertex="1">
          <mxGeometry x="160" y="80" width="100" height="30" as="geometry" />
        </mxCell>
        <mxCell id="sD6cUcT2AeGaPsXpgLF_-9" value="&lt;b&gt;pool_map_verison过期&lt;/b&gt;" style="text;html=1;align=center;verticalAlign=middle;resizable=0;points=[];autosize=1;strokeColor=none;fillColor=none;" parent="1" vertex="1">
          <mxGeometry x="1340" y="80" width="150" height="30" as="geometry" />
        </mxCell>
        <mxCell id="sD6cUcT2AeGaPsXpgLF_-10" value="srv_obj" style="shape=umlLifeline;participant=umlEntity;perimeter=lifelinePerimeter;whiteSpace=wrap;html=1;container=1;collapsible=0;recursiveResize=0;verticalAlign=top;spacingTop=36;outlineConnect=0;" parent="1" vertex="1">
          <mxGeometry x="1710" y="120" width="40" height="1420" as="geometry" />
        </mxCell>
        <mxCell id="sD6cUcT2AeGaPsXpgLF_-11" value="" style="html=1;points=[];perimeter=orthogonalPerimeter;" parent="sD6cUcT2AeGaPsXpgLF_-10" vertex="1">
          <mxGeometry x="15" y="150" width="10" height="210" as="geometry" />
        </mxCell>
        <mxCell id="sD6cUcT2AeGaPsXpgLF_-14" value="" style="html=1;points=[];perimeter=orthogonalPerimeter;" parent="sD6cUcT2AeGaPsXpgLF_-10" vertex="1">
          <mxGeometry x="20" y="190" width="10" height="40" as="geometry" />
        </mxCell>
        <mxCell id="sD6cUcT2AeGaPsXpgLF_-15" value="2. 从ds_pool中获取sp_map_version" style="edgeStyle=orthogonalEdgeStyle;html=1;align=left;spacingLeft=2;endArrow=block;rounded=0;entryX=1;entryY=0;" parent="sD6cUcT2AeGaPsXpgLF_-10" target="sD6cUcT2AeGaPsXpgLF_-14" edge="1">
          <mxGeometry relative="1" as="geometry">
            <mxPoint x="25" y="170" as="sourcePoint" />
            <Array as="points">
              <mxPoint x="55" y="170" />
            </Array>
          </mxGeometry>
        </mxCell>
        <mxCell id="sD6cUcT2AeGaPsXpgLF_-16" value="" style="html=1;points=[];perimeter=orthogonalPerimeter;" parent="sD6cUcT2AeGaPsXpgLF_-10" vertex="1">
          <mxGeometry x="20" y="280" width="10" height="40" as="geometry" />
        </mxCell>
        <mxCell id="sD6cUcT2AeGaPsXpgLF_-17" value="3. 比较orw_map_ver和sp_map_version是否小于当前版本&lt;br&gt;obj_ioc_begin_lite" style="edgeStyle=orthogonalEdgeStyle;html=1;align=left;spacingLeft=2;endArrow=block;rounded=0;entryX=1;entryY=0;exitX=0.98;exitY=0.516;exitDx=0;exitDy=0;exitPerimeter=0;" parent="sD6cUcT2AeGaPsXpgLF_-10" source="sD6cUcT2AeGaPsXpgLF_-11" target="sD6cUcT2AeGaPsXpgLF_-16" edge="1">
          <mxGeometry relative="1" as="geometry">
            <mxPoint x="30" y="260" as="sourcePoint" />
            <Array as="points">
              <mxPoint x="25" y="260" />
              <mxPoint x="50" y="260" />
              <mxPoint x="50" y="280" />
            </Array>
          </mxGeometry>
        </mxCell>
        <mxCell id="sD6cUcT2AeGaPsXpgLF_-42" value="" style="html=1;points=[];perimeter=orthogonalPerimeter;" parent="sD6cUcT2AeGaPsXpgLF_-10" vertex="1">
          <mxGeometry x="15" y="780" width="10" height="80" as="geometry" />
        </mxCell>
        <mxCell id="sD6cUcT2AeGaPsXpgLF_-12" value="1. 携带pool_map版本orw_map_ver" style="html=1;verticalAlign=bottom;endArrow=block;entryX=0;entryY=0;rounded=0;" parent="1" source="sD6cUcT2AeGaPsXpgLF_-7" target="sD6cUcT2AeGaPsXpgLF_-11" edge="1">
          <mxGeometry relative="1" as="geometry">
            <mxPoint x="1655" y="270" as="sourcePoint" />
          </mxGeometry>
        </mxCell>
        <mxCell id="sD6cUcT2AeGaPsXpgLF_-13" value="3. retrun -DER_STALE" style="html=1;verticalAlign=bottom;endArrow=open;dashed=1;endSize=8;exitX=0;exitY=0.95;rounded=0;" parent="1" source="sD6cUcT2AeGaPsXpgLF_-11" target="sD6cUcT2AeGaPsXpgLF_-7" edge="1">
          <mxGeometry relative="1" as="geometry">
            <mxPoint x="1400" y="469" as="targetPoint" />
          </mxGeometry>
        </mxCell>
        <mxCell id="sD6cUcT2AeGaPsXpgLF_-32" value="" style="shape=umlLifeline;participant=umlEntity;perimeter=lifelinePerimeter;whiteSpace=wrap;html=1;container=1;collapsible=0;recursiveResize=0;verticalAlign=top;spacingTop=36;outlineConnect=0;" parent="1" vertex="1">
          <mxGeometry x="2100" y="120" width="40" height="1440" as="geometry" />
        </mxCell>
        <mxCell id="sD6cUcT2AeGaPsXpgLF_-33" value="" style="html=1;points=[];perimeter=orthogonalPerimeter;" parent="sD6cUcT2AeGaPsXpgLF_-32" vertex="1">
          <mxGeometry x="15" y="580" width="10" height="80" as="geometry" />
        </mxCell>
        <mxCell id="sD6cUcT2AeGaPsXpgLF_-34" value="6. CaRT/POOL_TGT_QUERY_MAP&lt;br&gt;crt_bulk_t, 当前的map版本tmi_map_version" style="html=1;verticalAlign=bottom;endArrow=block;entryX=0;entryY=0;rounded=0;" parent="1" source="sD6cUcT2AeGaPsXpgLF_-7" target="sD6cUcT2AeGaPsXpgLF_-33" edge="1">
          <mxGeometry relative="1" as="geometry">
            <mxPoint x="1392" y="700" as="sourcePoint" />
          </mxGeometry>
        </mxCell>
        <mxCell id="sD6cUcT2AeGaPsXpgLF_-35" value="7. 成功" style="html=1;verticalAlign=bottom;endArrow=open;dashed=1;endSize=8;exitX=0;exitY=0.95;rounded=0;" parent="1" source="sD6cUcT2AeGaPsXpgLF_-33" target="sD6cUcT2AeGaPsXpgLF_-7" edge="1">
          <mxGeometry relative="1" as="geometry">
            <mxPoint x="2045" y="776" as="targetPoint" />
          </mxGeometry>
        </mxCell>
        <mxCell id="sD6cUcT2AeGaPsXpgLF_-43" value="9. 携带pool_map版本号等" style="html=1;verticalAlign=bottom;endArrow=block;entryX=0;entryY=0;rounded=0;" parent="1" target="sD6cUcT2AeGaPsXpgLF_-42" edge="1">
          <mxGeometry relative="1" as="geometry">
            <mxPoint x="1393" y="900" as="sourcePoint" />
          </mxGeometry>
        </mxCell>
        <mxCell id="sD6cUcT2AeGaPsXpgLF_-44" value="10. update流程成功" style="html=1;verticalAlign=bottom;endArrow=open;dashed=1;endSize=8;exitX=0;exitY=0.95;rounded=0;entryX=0.97;entryY=0.86;entryDx=0;entryDy=0;entryPerimeter=0;" parent="1" source="sD6cUcT2AeGaPsXpgLF_-42" target="sD6cUcT2AeGaPsXpgLF_-18" edge="1">
          <mxGeometry relative="1" as="geometry">
            <mxPoint x="1655" y="976" as="targetPoint" />
          </mxGeometry>
        </mxCell>
        <mxCell id="sD6cUcT2AeGaPsXpgLF_-38" value="obj_cmp_cb" style="shape=umlFrame;whiteSpace=wrap;html=1;width=100;height=30;" parent="1" vertex="1">
          <mxGeometry x="1270" y="490" width="920" height="500" as="geometry" />
        </mxCell>
      </root>
    </mxGraphModel>
  </diagram>
  <diagram id="TtVuGvqvFuG_CneSCBEG" name="DFS_FETCH">
    <mxGraphModel dx="954" dy="656" grid="1" gridSize="10" guides="1" tooltips="1" connect="1" arrows="1" fold="1" page="1" pageScale="1" pageWidth="1200" pageHeight="1600" math="0" shadow="0">
      <root>
        <mxCell id="0" />
        <mxCell id="1" parent="0" />
      </root>
    </mxGraphModel>
  </diagram>
  <diagram id="CK1vPFqlRs5jzipwncJh" name="DATA_FLUSH">
    <mxGraphModel dx="2224" dy="635" grid="1" gridSize="10" guides="1" tooltips="1" connect="1" arrows="1" fold="1" page="1" pageScale="1" pageWidth="1200" pageHeight="1600" math="0" shadow="0">
      <root>
        <mxCell id="0" />
        <mxCell id="1" parent="0" />
        <mxCell id="JgGtIb97ZIJXJBqSiS0o-1" value="VOS" style="shape=umlLifeline;participant=umlEntity;perimeter=lifelinePerimeter;whiteSpace=wrap;html=1;container=1;collapsible=0;recursiveResize=0;verticalAlign=top;spacingTop=36;outlineConnect=0;" parent="1" vertex="1">
          <mxGeometry x="240" y="40" width="40" height="830" as="geometry" />
        </mxCell>
        <mxCell id="JgGtIb97ZIJXJBqSiS0o-10" value="2. 创建io上下文&lt;br&gt;vos_ioc_create" style="edgeStyle=orthogonalEdgeStyle;html=1;align=left;spacingLeft=2;endArrow=block;rounded=0;entryX=1;entryY=0;" parent="JgGtIb97ZIJXJBqSiS0o-1" target="JgGtIb97ZIJXJBqSiS0o-9" edge="1">
          <mxGeometry relative="1" as="geometry">
            <mxPoint x="25" y="150" as="sourcePoint" />
            <Array as="points">
              <mxPoint x="55" y="150" />
            </Array>
          </mxGeometry>
        </mxCell>
        <mxCell id="JgGtIb97ZIJXJBqSiS0o-31" value="" style="html=1;points=[];perimeter=orthogonalPerimeter;" parent="JgGtIb97ZIJXJBqSiS0o-1" vertex="1">
          <mxGeometry x="15" y="120" width="10" height="350" as="geometry" />
        </mxCell>
        <mxCell id="JgGtIb97ZIJXJBqSiS0o-9" value="" style="html=1;points=[];perimeter=orthogonalPerimeter;" parent="JgGtIb97ZIJXJBqSiS0o-1" vertex="1">
          <mxGeometry x="20" y="160" width="10" height="40" as="geometry" />
        </mxCell>
        <mxCell id="JgGtIb97ZIJXJBqSiS0o-35" value="" style="html=1;points=[];perimeter=orthogonalPerimeter;" parent="JgGtIb97ZIJXJBqSiS0o-1" vertex="1">
          <mxGeometry x="15" y="650" width="10" height="80" as="geometry" />
        </mxCell>
        <mxCell id="JgGtIb97ZIJXJBqSiS0o-2" value="VEA" style="shape=umlLifeline;participant=umlEntity;perimeter=lifelinePerimeter;whiteSpace=wrap;html=1;container=1;collapsible=0;recursiveResize=0;verticalAlign=top;spacingTop=36;outlineConnect=0;" parent="1" vertex="1">
          <mxGeometry x="400" y="40" width="40" height="830" as="geometry" />
        </mxCell>
        <mxCell id="JgGtIb97ZIJXJBqSiS0o-11" value="" style="html=1;points=[];perimeter=orthogonalPerimeter;" parent="JgGtIb97ZIJXJBqSiS0o-2" vertex="1">
          <mxGeometry x="15" y="220" width="10" height="60" as="geometry" />
        </mxCell>
        <mxCell id="JgGtIb97ZIJXJBqSiS0o-3" value="BIO" style="shape=umlLifeline;participant=umlEntity;perimeter=lifelinePerimeter;whiteSpace=wrap;html=1;container=1;collapsible=0;recursiveResize=0;verticalAlign=top;spacingTop=36;outlineConnect=0;" parent="1" vertex="1">
          <mxGeometry x="570" y="40" width="40" height="830" as="geometry" />
        </mxCell>
        <mxCell id="JgGtIb97ZIJXJBqSiS0o-14" value="" style="html=1;points=[];perimeter=orthogonalPerimeter;" parent="JgGtIb97ZIJXJBqSiS0o-3" vertex="1">
          <mxGeometry x="15" y="300" width="10" height="60" as="geometry" />
        </mxCell>
        <mxCell id="JgGtIb97ZIJXJBqSiS0o-28" value="" style="html=1;points=[];perimeter=orthogonalPerimeter;" parent="JgGtIb97ZIJXJBqSiS0o-3" vertex="1">
          <mxGeometry x="15" y="540" width="10" height="80" as="geometry" />
        </mxCell>
        <mxCell id="JgGtIb97ZIJXJBqSiS0o-4" value="SRV_OBJ" style="shape=umlLifeline;participant=umlEntity;perimeter=lifelinePerimeter;whiteSpace=wrap;html=1;container=1;collapsible=0;recursiveResize=0;verticalAlign=top;spacingTop=36;outlineConnect=0;" parent="1" vertex="1">
          <mxGeometry x="80" y="40" width="40" height="830" as="geometry" />
        </mxCell>
        <mxCell id="JgGtIb97ZIJXJBqSiS0o-5" value="" style="html=1;points=[];perimeter=orthogonalPerimeter;" parent="JgGtIb97ZIJXJBqSiS0o-4" vertex="1">
          <mxGeometry x="15" y="120" width="10" height="620" as="geometry" />
        </mxCell>
        <mxCell id="JgGtIb97ZIJXJBqSiS0o-33" value="1. 预留空间vos_update_begin" style="html=1;verticalAlign=bottom;endArrow=block;rounded=0;" parent="JgGtIb97ZIJXJBqSiS0o-4" target="JgGtIb97ZIJXJBqSiS0o-31" edge="1">
          <mxGeometry width="80" relative="1" as="geometry">
            <mxPoint x="25" y="130" as="sourcePoint" />
            <mxPoint x="170" y="130" as="targetPoint" />
          </mxGeometry>
        </mxCell>
        <mxCell id="JgGtIb97ZIJXJBqSiS0o-12" value="3. 空间分配vea_reserve" style="html=1;verticalAlign=bottom;endArrow=block;entryX=0;entryY=0;rounded=0;" parent="1" source="JgGtIb97ZIJXJBqSiS0o-31" target="JgGtIb97ZIJXJBqSiS0o-11" edge="1">
          <mxGeometry relative="1" as="geometry">
            <mxPoint x="270" y="260" as="sourcePoint" />
          </mxGeometry>
        </mxCell>
        <mxCell id="JgGtIb97ZIJXJBqSiS0o-13" value="4. 返回分配成功地址映射offset" style="html=1;verticalAlign=bottom;endArrow=open;dashed=1;endSize=8;exitX=0;exitY=0.95;rounded=0;" parent="1" source="JgGtIb97ZIJXJBqSiS0o-11" edge="1">
          <mxGeometry relative="1" as="geometry">
            <mxPoint x="260" y="317" as="targetPoint" />
          </mxGeometry>
        </mxCell>
        <mxCell id="JgGtIb97ZIJXJBqSiS0o-15" value="5. 处理bIo sgl数据bio_iod_prep" style="html=1;verticalAlign=bottom;endArrow=block;entryX=0;entryY=0;rounded=0;" parent="1" source="JgGtIb97ZIJXJBqSiS0o-5" target="JgGtIb97ZIJXJBqSiS0o-14" edge="1">
          <mxGeometry relative="1" as="geometry">
            <mxPoint x="270" y="340" as="sourcePoint" />
          </mxGeometry>
        </mxCell>
        <mxCell id="JgGtIb97ZIJXJBqSiS0o-16" value="6. 返回成功" style="html=1;verticalAlign=bottom;endArrow=open;dashed=1;endSize=8;exitX=0;exitY=0.95;rounded=0;" parent="1" source="JgGtIb97ZIJXJBqSiS0o-14" target="JgGtIb97ZIJXJBqSiS0o-5" edge="1">
          <mxGeometry relative="1" as="geometry">
            <mxPoint x="290" y="397" as="targetPoint" />
          </mxGeometry>
        </mxCell>
        <mxCell id="JgGtIb97ZIJXJBqSiS0o-22" value="cli_obj" style="shape=umlLifeline;participant=umlEntity;perimeter=lifelinePerimeter;whiteSpace=wrap;html=1;container=1;collapsible=0;recursiveResize=0;verticalAlign=top;spacingTop=36;outlineConnect=0;" parent="1" vertex="1">
          <mxGeometry x="-50" y="40" width="40" height="830" as="geometry" />
        </mxCell>
        <mxCell id="JgGtIb97ZIJXJBqSiS0o-23" value="" style="html=1;points=[];perimeter=orthogonalPerimeter;direction=west;" parent="JgGtIb97ZIJXJBqSiS0o-22" vertex="1">
          <mxGeometry x="15" y="430" width="10" height="80" as="geometry" />
        </mxCell>
        <mxCell id="JgGtIb97ZIJXJBqSiS0o-24" value="7. obj_bulk_transfer已经分配好内存进行传输数据" style="html=1;verticalAlign=bottom;endArrow=block;rounded=0;" parent="1" source="JgGtIb97ZIJXJBqSiS0o-5" target="JgGtIb97ZIJXJBqSiS0o-23" edge="1">
          <mxGeometry relative="1" as="geometry">
            <mxPoint x="-105" y="470" as="sourcePoint" />
          </mxGeometry>
        </mxCell>
        <mxCell id="JgGtIb97ZIJXJBqSiS0o-29" value="9. 数据下盘 bio_iod_post" style="html=1;verticalAlign=bottom;endArrow=block;entryX=0;entryY=0;rounded=0;" parent="1" source="JgGtIb97ZIJXJBqSiS0o-5" target="JgGtIb97ZIJXJBqSiS0o-28" edge="1">
          <mxGeometry relative="1" as="geometry">
            <mxPoint x="270" y="580" as="sourcePoint" />
          </mxGeometry>
        </mxCell>
        <mxCell id="JgGtIb97ZIJXJBqSiS0o-30" value="10. 下发成功" style="html=1;verticalAlign=bottom;endArrow=open;dashed=1;endSize=8;exitX=0;exitY=0.95;rounded=0;" parent="1" source="JgGtIb97ZIJXJBqSiS0o-28" target="JgGtIb97ZIJXJBqSiS0o-5" edge="1">
          <mxGeometry relative="1" as="geometry">
            <mxPoint x="345" y="656" as="targetPoint" />
          </mxGeometry>
        </mxCell>
        <mxCell id="JgGtIb97ZIJXJBqSiS0o-34" value="8. 下发数据" style="html=1;verticalAlign=bottom;endArrow=open;dashed=1;endSize=8;rounded=0;" parent="1" source="JgGtIb97ZIJXJBqSiS0o-23" target="JgGtIb97ZIJXJBqSiS0o-5" edge="1">
          <mxGeometry relative="1" as="geometry">
            <mxPoint x="10" y="600" as="sourcePoint" />
            <mxPoint x="-70" y="600" as="targetPoint" />
            <Array as="points">
              <mxPoint x="40" y="540" />
            </Array>
          </mxGeometry>
        </mxCell>
        <mxCell id="JgGtIb97ZIJXJBqSiS0o-36" value="11. 元数据更新vos_update_end" style="html=1;verticalAlign=bottom;endArrow=block;entryX=0;entryY=0;rounded=0;" parent="1" target="JgGtIb97ZIJXJBqSiS0o-35" edge="1">
          <mxGeometry relative="1" as="geometry">
            <mxPoint x="100" y="690" as="sourcePoint" />
          </mxGeometry>
        </mxCell>
        <mxCell id="JgGtIb97ZIJXJBqSiS0o-37" value="12. 更新成功" style="html=1;verticalAlign=bottom;endArrow=open;dashed=1;endSize=8;exitX=0;exitY=0.95;rounded=0;" parent="1" source="JgGtIb97ZIJXJBqSiS0o-35" target="JgGtIb97ZIJXJBqSiS0o-4" edge="1">
          <mxGeometry relative="1" as="geometry">
            <mxPoint x="185" y="766" as="targetPoint" />
          </mxGeometry>
        </mxCell>
        <mxCell id="JgGtIb97ZIJXJBqSiS0o-38" value="客户端写流程" style="shape=umlFrame;whiteSpace=wrap;html=1;width=100;height=20;" parent="1" vertex="1">
          <mxGeometry x="-50" y="100" width="680" height="50" as="geometry" />
        </mxCell>
        <mxCell id="JgGtIb97ZIJXJBqSiS0o-39" value="返回到客户端流程" style="shape=umlFrame;whiteSpace=wrap;html=1;width=100;height=20;" parent="1" vertex="1">
          <mxGeometry x="-50" y="800" width="680" height="50" as="geometry" />
        </mxCell>
      </root>
    </mxGraphModel>
  </diagram>
  <diagram id="r1ceEJN3pjtYPGy55Ugv" name="REBUILD">
    <mxGraphModel dx="2295" dy="2178" grid="1" gridSize="10" guides="1" tooltips="1" connect="1" arrows="1" fold="1" page="1" pageScale="1" pageWidth="827" pageHeight="1169" math="0" shadow="0">
      <root>
        <mxCell id="0" />
        <mxCell id="1" parent="0" />
        <mxCell id="xcm5ooLV0q2SVbWyMxK8-1" value="pool leader" style="shape=umlLifeline;perimeter=lifelinePerimeter;whiteSpace=wrap;html=1;container=1;dropTarget=0;collapsible=0;recursiveResize=0;outlineConnect=0;portConstraint=eastwest;newEdgeStyle={&quot;edgeStyle&quot;:&quot;elbowEdgeStyle&quot;,&quot;elbow&quot;:&quot;vertical&quot;,&quot;curved&quot;:0,&quot;rounded&quot;:0};participant=umlEntity;" parent="1" vertex="1">
          <mxGeometry x="160" y="80" width="40" height="1150" as="geometry" />
        </mxCell>
        <mxCell id="myYTMUNYSO7s9mrA_-_Z-3" value="" style="html=1;points=[];perimeter=orthogonalPerimeter;outlineConnect=0;targetShapes=umlLifeline;portConstraint=eastwest;newEdgeStyle={&quot;edgeStyle&quot;:&quot;elbowEdgeStyle&quot;,&quot;elbow&quot;:&quot;vertical&quot;,&quot;curved&quot;:0,&quot;rounded&quot;:0};" vertex="1" parent="xcm5ooLV0q2SVbWyMxK8-1">
          <mxGeometry x="15" y="140" width="10" height="520" as="geometry" />
        </mxCell>
        <mxCell id="myYTMUNYSO7s9mrA_-_Z-4" value="" style="html=1;points=[];perimeter=orthogonalPerimeter;outlineConnect=0;targetShapes=umlLifeline;portConstraint=eastwest;newEdgeStyle={&quot;edgeStyle&quot;:&quot;elbowEdgeStyle&quot;,&quot;elbow&quot;:&quot;vertical&quot;,&quot;curved&quot;:0,&quot;rounded&quot;:0};" vertex="1" parent="xcm5ooLV0q2SVbWyMxK8-1">
          <mxGeometry x="22" y="180" width="10" height="40" as="geometry" />
        </mxCell>
        <mxCell id="myYTMUNYSO7s9mrA_-_Z-5" value="1. 尝试合并重建任务" style="html=1;align=left;spacingLeft=2;endArrow=block;rounded=0;edgeStyle=orthogonalEdgeStyle;curved=0;rounded=0;" edge="1" target="myYTMUNYSO7s9mrA_-_Z-4" parent="xcm5ooLV0q2SVbWyMxK8-1" source="myYTMUNYSO7s9mrA_-_Z-3">
          <mxGeometry relative="1" as="geometry">
            <mxPoint x="30" y="160" as="sourcePoint" />
            <Array as="points">
              <mxPoint x="60" y="160" />
              <mxPoint x="60" y="190" />
            </Array>
          </mxGeometry>
        </mxCell>
        <mxCell id="myYTMUNYSO7s9mrA_-_Z-6" value="" style="html=1;points=[];perimeter=orthogonalPerimeter;outlineConnect=0;targetShapes=umlLifeline;portConstraint=eastwest;newEdgeStyle={&quot;edgeStyle&quot;:&quot;elbowEdgeStyle&quot;,&quot;elbow&quot;:&quot;vertical&quot;,&quot;curved&quot;:0,&quot;rounded&quot;:0};" vertex="1" parent="xcm5ooLV0q2SVbWyMxK8-1">
          <mxGeometry x="20" y="260" width="10" height="40" as="geometry" />
        </mxCell>
        <mxCell id="myYTMUNYSO7s9mrA_-_Z-7" value="2. 添加新任务到任务队列" style="html=1;align=left;spacingLeft=2;endArrow=block;rounded=0;edgeStyle=orthogonalEdgeStyle;curved=0;rounded=0;" edge="1" target="myYTMUNYSO7s9mrA_-_Z-6" parent="xcm5ooLV0q2SVbWyMxK8-1">
          <mxGeometry relative="1" as="geometry">
            <mxPoint x="25" y="240" as="sourcePoint" />
            <Array as="points">
              <mxPoint x="55" y="270" />
            </Array>
          </mxGeometry>
        </mxCell>
        <mxCell id="PANNWNsosCEVA-jluLX9-1" value="申请情况下会触发REBUILD流程&lt;br&gt;1. POOL_EXTEND: dgm pool extend&lt;br&gt;2. POOL_DRAIN: dmg pool drain&lt;br&gt;3. POOL_REINTEGRATION: dmg pool reintegration&lt;br&gt;&lt;br&gt;重构调度函数： ds_rebuild_schedule" style="text;html=1;align=left;verticalAlign=middle;resizable=0;points=[];autosize=1;strokeColor=none;fillColor=none;" parent="1" vertex="1">
          <mxGeometry x="-70" y="-40" width="300" height="100" as="geometry" />
        </mxCell>
        <mxCell id="PANNWNsosCEVA-jluLX9-2" value="扫描target" style="shape=umlLifeline;perimeter=lifelinePerimeter;whiteSpace=wrap;html=1;container=1;dropTarget=0;collapsible=0;recursiveResize=0;outlineConnect=0;portConstraint=eastwest;newEdgeStyle={&quot;edgeStyle&quot;:&quot;elbowEdgeStyle&quot;,&quot;elbow&quot;:&quot;vertical&quot;,&quot;curved&quot;:0,&quot;rounded&quot;:0};participant=umlEntity;" parent="1" vertex="1">
          <mxGeometry x="440" y="80" width="40" height="1150" as="geometry" />
        </mxCell>
        <mxCell id="myYTMUNYSO7s9mrA_-_Z-8" value="" style="html=1;points=[];perimeter=orthogonalPerimeter;outlineConnect=0;targetShapes=umlLifeline;portConstraint=eastwest;newEdgeStyle={&quot;edgeStyle&quot;:&quot;elbowEdgeStyle&quot;,&quot;elbow&quot;:&quot;vertical&quot;,&quot;curved&quot;:0,&quot;rounded&quot;:0};" vertex="1" parent="PANNWNsosCEVA-jluLX9-2">
          <mxGeometry x="15" y="320" width="10" height="670" as="geometry" />
        </mxCell>
        <mxCell id="myYTMUNYSO7s9mrA_-_Z-11" value="" style="html=1;points=[];perimeter=orthogonalPerimeter;outlineConnect=0;targetShapes=umlLifeline;portConstraint=eastwest;newEdgeStyle={&quot;edgeStyle&quot;:&quot;elbowEdgeStyle&quot;,&quot;elbow&quot;:&quot;vertical&quot;,&quot;curved&quot;:0,&quot;rounded&quot;:0};" vertex="1" parent="PANNWNsosCEVA-jluLX9-2">
          <mxGeometry x="20" y="370" width="10" height="40" as="geometry" />
        </mxCell>
        <mxCell id="myYTMUNYSO7s9mrA_-_Z-12" value="4. 扫描vpool重所有对象并调用placement&lt;br&gt;算法计算重建op下对象需要迁移到那个target上" style="html=1;align=left;spacingLeft=2;endArrow=block;rounded=0;edgeStyle=orthogonalEdgeStyle;curved=0;rounded=0;" edge="1" target="myYTMUNYSO7s9mrA_-_Z-11" parent="PANNWNsosCEVA-jluLX9-2">
          <mxGeometry relative="1" as="geometry">
            <mxPoint x="25" y="350" as="sourcePoint" />
            <Array as="points">
              <mxPoint x="55" y="380" />
            </Array>
          </mxGeometry>
        </mxCell>
        <mxCell id="myYTMUNYSO7s9mrA_-_Z-13" value="" style="html=1;points=[];perimeter=orthogonalPerimeter;outlineConnect=0;targetShapes=umlLifeline;portConstraint=eastwest;newEdgeStyle={&quot;edgeStyle&quot;:&quot;elbowEdgeStyle&quot;,&quot;elbow&quot;:&quot;vertical&quot;,&quot;curved&quot;:0,&quot;rounded&quot;:0};" vertex="1" parent="PANNWNsosCEVA-jluLX9-2">
          <mxGeometry x="20" y="460" width="10" height="40" as="geometry" />
        </mxCell>
        <mxCell id="myYTMUNYSO7s9mrA_-_Z-14" value="5. 统计容器-对象-重建target之间的关系B树" style="html=1;align=left;spacingLeft=2;endArrow=block;rounded=0;edgeStyle=orthogonalEdgeStyle;curved=0;rounded=0;" edge="1" target="myYTMUNYSO7s9mrA_-_Z-13" parent="PANNWNsosCEVA-jluLX9-2">
          <mxGeometry x="-0.0588" y="-5" relative="1" as="geometry">
            <mxPoint x="25" y="440" as="sourcePoint" />
            <Array as="points">
              <mxPoint x="55" y="470" />
            </Array>
            <mxPoint as="offset" />
          </mxGeometry>
        </mxCell>
        <mxCell id="myYTMUNYSO7s9mrA_-_Z-9" value="3. 发送pool_uuid和重建op" style="html=1;verticalAlign=bottom;endArrow=block;edgeStyle=elbowEdgeStyle;elbow=vertical;curved=0;rounded=0;" edge="1" target="myYTMUNYSO7s9mrA_-_Z-8" parent="1" source="xcm5ooLV0q2SVbWyMxK8-1">
          <mxGeometry relative="1" as="geometry">
            <mxPoint x="385" y="400" as="sourcePoint" />
            <Array as="points">
              <mxPoint x="340" y="410" />
            </Array>
          </mxGeometry>
        </mxCell>
        <mxCell id="myYTMUNYSO7s9mrA_-_Z-10" value="return" style="html=1;verticalAlign=bottom;endArrow=open;dashed=1;endSize=8;edgeStyle=elbowEdgeStyle;elbow=vertical;curved=0;rounded=0;" edge="1" source="myYTMUNYSO7s9mrA_-_Z-8" parent="1" target="myYTMUNYSO7s9mrA_-_Z-3">
          <mxGeometry relative="1" as="geometry">
            <mxPoint x="385" y="475" as="targetPoint" />
            <Array as="points">
              <mxPoint x="350" y="620" />
              <mxPoint x="340" y="470" />
              <mxPoint x="360" y="400" />
            </Array>
          </mxGeometry>
        </mxCell>
        <mxCell id="myYTMUNYSO7s9mrA_-_Z-21" value="迁移target" style="shape=umlLifeline;perimeter=lifelinePerimeter;whiteSpace=wrap;html=1;container=1;dropTarget=0;collapsible=0;recursiveResize=0;outlineConnect=0;portConstraint=eastwest;newEdgeStyle={&quot;edgeStyle&quot;:&quot;elbowEdgeStyle&quot;,&quot;elbow&quot;:&quot;vertical&quot;,&quot;curved&quot;:0,&quot;rounded&quot;:0};participant=umlEntity;" vertex="1" parent="1">
          <mxGeometry x="820" y="80" width="40" height="1150" as="geometry" />
        </mxCell>
        <mxCell id="myYTMUNYSO7s9mrA_-_Z-27" value="" style="html=1;points=[];perimeter=orthogonalPerimeter;outlineConnect=0;targetShapes=umlLifeline;portConstraint=eastwest;newEdgeStyle={&quot;edgeStyle&quot;:&quot;elbowEdgeStyle&quot;,&quot;elbow&quot;:&quot;vertical&quot;,&quot;curved&quot;:0,&quot;rounded&quot;:0};" vertex="1" parent="myYTMUNYSO7s9mrA_-_Z-21">
          <mxGeometry x="15" y="535" width="10" height="445" as="geometry" />
        </mxCell>
        <mxCell id="myYTMUNYSO7s9mrA_-_Z-30" value="" style="html=1;points=[];perimeter=orthogonalPerimeter;outlineConnect=0;targetShapes=umlLifeline;portConstraint=eastwest;newEdgeStyle={&quot;edgeStyle&quot;:&quot;elbowEdgeStyle&quot;,&quot;elbow&quot;:&quot;vertical&quot;,&quot;curved&quot;:0,&quot;rounded&quot;:0};" vertex="1" parent="myYTMUNYSO7s9mrA_-_Z-21">
          <mxGeometry x="20" y="570" width="10" height="40" as="geometry" />
        </mxCell>
        <mxCell id="myYTMUNYSO7s9mrA_-_Z-31" value="7. 收集容器-队形-迁移对象数据之间关系B树" style="html=1;align=left;spacingLeft=2;endArrow=block;rounded=0;edgeStyle=orthogonalEdgeStyle;curved=0;rounded=0;" edge="1" target="myYTMUNYSO7s9mrA_-_Z-30" parent="myYTMUNYSO7s9mrA_-_Z-21">
          <mxGeometry x="-0.6471" y="-10" relative="1" as="geometry">
            <mxPoint x="25" y="550" as="sourcePoint" />
            <Array as="points">
              <mxPoint x="55" y="580" />
            </Array>
            <mxPoint as="offset" />
          </mxGeometry>
        </mxCell>
        <mxCell id="myYTMUNYSO7s9mrA_-_Z-32" value="" style="html=1;points=[];perimeter=orthogonalPerimeter;outlineConnect=0;targetShapes=umlLifeline;portConstraint=eastwest;newEdgeStyle={&quot;edgeStyle&quot;:&quot;elbowEdgeStyle&quot;,&quot;elbow&quot;:&quot;vertical&quot;,&quot;curved&quot;:0,&quot;rounded&quot;:0};" vertex="1" parent="myYTMUNYSO7s9mrA_-_Z-21">
          <mxGeometry x="20" y="660" width="10" height="40" as="geometry" />
        </mxCell>
        <mxCell id="myYTMUNYSO7s9mrA_-_Z-33" value="10. 启动迁移ULT" style="html=1;align=left;spacingLeft=2;endArrow=block;rounded=0;edgeStyle=orthogonalEdgeStyle;curved=0;rounded=0;" edge="1" target="myYTMUNYSO7s9mrA_-_Z-32" parent="myYTMUNYSO7s9mrA_-_Z-21">
          <mxGeometry relative="1" as="geometry">
            <mxPoint x="25" y="640" as="sourcePoint" />
            <Array as="points">
              <mxPoint x="55" y="670" />
            </Array>
          </mxGeometry>
        </mxCell>
        <mxCell id="myYTMUNYSO7s9mrA_-_Z-34" value="" style="html=1;points=[];perimeter=orthogonalPerimeter;outlineConnect=0;targetShapes=umlLifeline;portConstraint=eastwest;newEdgeStyle={&quot;edgeStyle&quot;:&quot;elbowEdgeStyle&quot;,&quot;elbow&quot;:&quot;vertical&quot;,&quot;curved&quot;:0,&quot;rounded&quot;:0};" vertex="1" parent="myYTMUNYSO7s9mrA_-_Z-21">
          <mxGeometry x="20" y="748" width="10" height="40" as="geometry" />
        </mxCell>
        <mxCell id="myYTMUNYSO7s9mrA_-_Z-35" value="11.申请bio内存，准备bulk传输等" style="html=1;align=left;spacingLeft=2;endArrow=block;rounded=0;edgeStyle=orthogonalEdgeStyle;curved=0;rounded=0;" edge="1" target="myYTMUNYSO7s9mrA_-_Z-34" parent="myYTMUNYSO7s9mrA_-_Z-21">
          <mxGeometry relative="1" as="geometry">
            <mxPoint x="25" y="728" as="sourcePoint" />
            <Array as="points">
              <mxPoint x="55" y="758" />
            </Array>
            <mxPoint as="offset" />
          </mxGeometry>
        </mxCell>
        <mxCell id="myYTMUNYSO7s9mrA_-_Z-28" value="6. 收集同一个target需要重建的对象信息" style="html=1;verticalAlign=bottom;endArrow=block;edgeStyle=elbowEdgeStyle;elbow=vertical;curved=0;rounded=0;" edge="1" target="myYTMUNYSO7s9mrA_-_Z-27" parent="1">
          <mxGeometry relative="1" as="geometry">
            <mxPoint x="465" y="648" as="sourcePoint" />
            <Array as="points">
              <mxPoint x="660" y="620" />
            </Array>
          </mxGeometry>
        </mxCell>
        <mxCell id="myYTMUNYSO7s9mrA_-_Z-29" value="8. 返回成功" style="html=1;verticalAlign=bottom;endArrow=open;dashed=1;endSize=8;edgeStyle=elbowEdgeStyle;elbow=vertical;curved=0;rounded=0;" edge="1" source="myYTMUNYSO7s9mrA_-_Z-27" parent="1" target="PANNWNsosCEVA-jluLX9-2">
          <mxGeometry relative="1" as="geometry">
            <mxPoint x="765" y="690" as="targetPoint" />
            <Array as="points">
              <mxPoint x="680" y="700" />
              <mxPoint x="740" y="740" />
              <mxPoint x="658" y="690" />
            </Array>
          </mxGeometry>
        </mxCell>
        <mxCell id="myYTMUNYSO7s9mrA_-_Z-39" value="fetch流程" style="shape=umlFrame;whiteSpace=wrap;html=1;pointerEvents=0;" vertex="1" parent="1">
          <mxGeometry x="414" y="880" width="486" height="70" as="geometry" />
        </mxCell>
        <mxCell id="myYTMUNYSO7s9mrA_-_Z-40" value="9. 扫描完成" style="html=1;verticalAlign=bottom;endArrow=open;dashed=1;endSize=8;edgeStyle=elbowEdgeStyle;elbow=vertical;curved=0;rounded=0;" edge="1" parent="1" source="PANNWNsosCEVA-jluLX9-2">
          <mxGeometry relative="1" as="geometry">
            <mxPoint x="260" y="730" as="sourcePoint" />
            <mxPoint x="180" y="730" as="targetPoint" />
          </mxGeometry>
        </mxCell>
      </root>
    </mxGraphModel>
  </diagram>
  <diagram id="WkkADGu2w_yJ4d9a3hZg" name="THEAD_MODLE">
    <mxGraphModel dx="1024" dy="635" grid="1" gridSize="10" guides="1" tooltips="1" connect="1" arrows="1" fold="1" page="1" pageScale="1" pageWidth="827" pageHeight="1169" math="0" shadow="0">
      <root>
        <mxCell id="0" />
        <mxCell id="1" parent="0" />
      </root>
    </mxGraphModel>
  </diagram>
</mxfile>
